<svg width="745" height="383" viewBox="0 0 745 383" fill="none" xmlns="http://www.w3.org/2000/svg">
<path fill-rule="evenodd" clip-rule="evenodd" d="M314.51 70.8898H301.89L301.04 72.9198C292.5 93.5298 273.57 94.8798 272.74 94.9598L249.18 94.9098V107.05H184.04V189.14H190.86V113.42H256.01V101.29H273C274.11 101.27 295.72 99.6598 306.32 77.2498H318.46L319.42 75.6098C320.02 74.5798 334.71 50.3498 369.07 49.1198L368.86 42.7598C335.41 43.9698 318.72 64.7698 314.51 70.8998V70.8898Z" fill="#003C64"/>
<path fill-rule="evenodd" clip-rule="evenodd" d="M555.57 126.22C555.2 125.53 553.57 124.9 552.43 124.25V130.3C552.73 130.09 552.97 129.91 553.13 129.83C554.89 128.98 556.06 127.12 555.57 126.22Z" fill="#003C64"/>
<path fill-rule="evenodd" clip-rule="evenodd" d="M537.14 104.69C535.46 104.9 533.5 106.21 532.08 106.89H550.49C549.98 106.24 549.55 105.67 549.27 105.34C548.41 104.23 547.84 102.23 545.24 102.57C542.66 102.92 539.64 104.4 537.14 104.7V104.69Z" fill="#003C64"/>
<path fill-rule="evenodd" clip-rule="evenodd" d="M606.28 166.9C607.2 165.47 610.349 163.52 611.929 162.66C613.509 161.77 614.199 160.44 614.189 159.21C614.149 157.98 614.569 158.16 616.129 157.24C617.709 156.28 616.619 155.99 615.359 156.16C614.089 156.28 614.899 154.72 614.349 153.89C613.799 153.05 614.509 152.54 614.969 151.26C615.439 150.02 616.189 148.12 616.189 148.12C616.189 148.12 614.35 148.76 612.78 149.96C611.2 151.14 610.819 150.51 608.759 151.19C606.699 151.88 603.059 154.29 603.059 154.29C603.059 154.29 605.549 152.27 606.229 151.73C606.919 151.19 608.429 149.29 609.819 148.04C611.259 146.8 614.159 145.14 614.639 144.69C615.079 144.25 614.819 143.5 613.219 143.61C611.589 143.72 610.299 144.72 608.039 146.46C605.799 148.18 596.98 154.14 596.02 155.04C595.09 155.93 594.819 157.88 594.409 157.48C593.959 157.11 593.079 157.25 593.079 158.36C593.079 159.47 591.769 159.56 592.349 159.67C592.939 159.77 593.339 159.7 594.409 158.68C595.459 157.64 597.77 157.3 597.46 157.99C597.14 158.68 594.29 160.32 593.09 161.52C591.89 162.76 584.599 167.57 581.189 169.89C577.769 172.2 577.559 174.52 575.749 175.62C573.959 176.71 571.249 176.99 570.289 176.15C569.359 175.32 570.23 173.3 572.96 171.25C575.71 169.18 578.549 167.55 580.869 165.17C583.169 162.8 585.15 161.11 586.21 159.15C587.24 157.15 587.579 153.49 586.569 152.84C585.529 152.15 586.399 151.19 587.289 150.59C588.179 150.03 588.619 148.67 587.989 148.25C587.339 147.8 587.629 147.41 588.859 146.95C590.129 146.52 588.25 145.07 586.71 144.64C585.19 144.2 581.749 144.09 577.109 145.87C572.499 147.65 569.269 148.89 567.379 149.48C565.519 150.05 562.89 150.21 561.65 150.21C560.41 150.21 560.949 149.01 560.429 148.68C559.919 148.33 557.679 149.9 557.679 149.9C557.679 149.9 559.409 148.45 559.609 146.96C559.769 145.49 562.469 145.15 562.639 144.51C562.819 143.86 561.799 143.73 560.559 144.21C559.289 144.7 559.29 142.78 559.77 141.89C560.21 141 561.11 139.05 560.77 139.54C560.48 140.04 559.489 140.22 559.229 139.35C558.949 138.45 557.679 139.05 556.229 139.87C554.709 140.72 553.88 138.85 553.52 138.25C553.44 138.11 552.989 138.18 552.439 138.27V189.15H545.65V140.46C545.02 140.69 544.479 140.88 544.189 141C542.839 141.58 538.939 143.12 537.559 144.95C536.159 146.77 530.369 150.41 530.369 150.04C530.369 149.63 536.77 143.73 537.65 142.93C538.56 142.17 541.079 139.41 544.189 137.91C544.679 137.72 545.16 137.37 545.65 137.01V120.62C545.33 120.5 544.989 120.44 544.719 120.41C542.939 120.14 543.049 119.61 543.789 118.97C544.149 118.66 544.84 117.74 545.65 116.87V113.44H482.039V106.08C480.989 106.91 480.179 107.52 479.789 107.87C477.769 109.56 474.879 111.59 472.309 112.94C469.719 114.31 461.189 120.13 458.659 120.97C456.139 121.83 450.169 125.71 447.639 126.44C445.119 127.19 434.279 133.51 432.989 134.62C431.759 135.76 427.959 137.74 425.889 138.12C423.829 138.53 423.239 139.07 422.169 141.02C421.089 143 417.849 144.84 417.529 145.31C417.209 145.81 417.989 146.19 419.219 146.78C420.419 147.38 421.669 151.04 422.369 151.65C423.039 152.25 426.219 151.62 426.219 151.62C426.219 151.62 426.099 152.3 426.289 153.37C426.419 154.48 429.219 153.51 429.649 154.05C430.089 154.61 428.649 156.32 427.759 156.97C426.839 157.6 427.479 159.05 428.979 159.54C430.409 160.03 430.529 161.04 430.829 162.44C431.159 163.82 431.899 165.35 433.379 164.69C434.849 164.05 435.969 162.22 437.039 161.69C438.089 161.15 438.869 161.13 438.259 163.29C437.589 165.45 437.97 167.51 437.59 168.24C437.22 169 435.609 168.24 434.919 168.56C434.239 168.86 432.919 171.84 432.979 171.52C433.009 171.15 430.779 170.27 430.779 170.27C430.779 170.27 432.089 171.06 432.169 172.92C432.269 174.82 429.989 174.82 428.709 175.05C427.439 175.29 426.969 176.78 428.319 177.6C429.679 178.42 430.259 180.65 432.319 179.97C434.369 179.29 435.899 180.42 436.659 181.18C437.399 181.98 435.509 182.24 436.199 182.79C436.969 183.32 435.969 183.61 435.019 183.97C434.049 184.32 436.879 185.29 438.079 185.53C439.269 185.8 440.079 184.7 440.689 184.16C441.359 183.62 442.48 183.78 445.02 182.96C447.57 182.2 453.699 177.28 456.009 176.36C458.349 175.39 459.449 174.02 462.189 172.16C464.909 170.28 469.459 168.21 471.719 167.37C473.999 166.53 476.569 162.29 478.219 160.57C479.919 158.84 483.3 158.08 485.78 157.28C488.22 156.47 488.629 155.2 489.919 153.83C491.249 152.45 489.889 154.86 491.569 154.37C493.269 153.89 493.46 153.15 496.53 152.56C499.56 151.98 498.959 150.89 497.929 150.27C496.949 149.68 495.249 150.78 493.999 151.62C492.729 152.45 488.199 152.02 488.199 152.02C488.199 152.02 495.209 148.91 496.859 147.97C498.439 147.05 501.21 145.38 504.53 144.58C507.85 143.82 510.929 141.56 510.929 141.56C510.929 141.56 507.47 145.88 505.9 147.32C504.33 148.74 501.949 147.96 501.119 149.91C500.249 151.9 497.58 151.97 495.84 154.01C494.11 156.07 488.939 158.82 486.359 160.4C483.789 162 477.769 165.53 475.609 167.84C473.489 170.16 463.499 175.67 460.509 177.59C457.489 179.53 452.199 182.46 446.719 186.41C441.219 190.36 434.969 194.98 433.679 195.73C432.439 196.46 432.309 197.36 432.219 198.73C432.119 200.1 428.979 201.95 427.909 202.44C426.839 202.88 425.829 203.74 426.909 204.84C427.959 205.93 428.799 205.43 429.659 204.73C430.589 204.07 430.789 205.72 430.819 206.87C430.919 208 432.299 208.23 433.859 208.65C435.349 209.03 435.309 210.65 438.069 210.89C440.809 211.06 440.47 208.84 442.9 208.9C445.32 208.93 447.419 207.75 449.219 206.93C451.009 206.07 455.26 203.17 457.96 200.63C460.71 198.07 467.109 194.73 467.109 194.73C467.109 194.73 467.749 197.03 469.979 197.58C472.209 198.11 470.859 200.81 470.979 201.21C471.069 201.63 472.389 200.86 473.989 199.75C475.549 198.6 478.299 198.5 478.299 198.5C478.299 198.5 478.389 198.89 477.239 199.63C476.089 200.4 475.019 201.92 475.919 202.29C476.779 202.69 479.709 201.82 482.389 201.16C485.089 200.47 490.709 196.19 493.099 195.54C495.469 194.9 496.669 196.73 496.669 196.73C496.669 196.73 498.359 196.07 498.989 196.67C499.609 197.25 502.46 196.82 502.46 196.82C502.46 196.82 500.349 197.4 500.679 198.1C500.999 198.8 500.619 200.3 499.439 200.76C498.309 201.19 495.349 204.9 494.989 206.03C494.589 207.16 496.519 206.52 496.559 208.64C496.599 210.76 494.17 209.96 495.46 210.64C496.71 211.34 497.399 210.76 498.619 210.07C499.809 209.38 498.479 213.41 500.409 213.72C502.269 214.02 504.759 212.95 507.829 211.43C510.879 209.92 518.479 206.33 520.689 204.34C522.869 202.38 523.179 202.46 526.129 199.98C529.119 197.57 528.949 198.48 531.099 196.96C533.259 195.44 535.419 193.38 538.179 192.52C540.909 191.69 541.989 190.8 543.259 189.88C544.509 188.95 545.839 191.21 547.349 190.8C548.879 190.43 549.379 190.61 550.569 190.66C551.789 190.7 555.629 187.56 555.629 187.56C555.629 187.56 553.469 189.62 552.369 190.28C551.269 190.92 547.189 193.56 544.189 196.32C541.189 199.1 539.149 199.76 537.199 202.25C535.259 204.7 531.699 206.62 528.739 208.23C525.799 209.88 528.77 213.91 527.15 215.11C525.52 216.27 527.059 217.14 529.259 217.19C531.459 217.26 530.459 219.23 531.389 219.87C532.279 220.53 536.519 220.32 538.759 218.98C540.979 217.64 545.579 213.73 546.909 212.25C548.209 210.77 550.96 211.55 552.27 210.13C553.59 208.69 555.919 208.5 557.409 208.2C558.169 208.04 559.129 207.59 559.799 207.18C560.379 206.85 560.789 206.58 560.789 206.58C560.789 206.58 560.379 206.86 559.799 207.18C558.509 208 556.44 209.44 555.77 210.8C554.75 212.78 550.439 215.05 549.439 215.7C548.459 216.34 548.189 218.25 551.109 217.15C554.089 216.06 558.439 214.86 560.009 214.72C561.609 214.57 562.929 213.95 564.119 212.66C565.329 211.4 564.919 212.45 566.499 212.16C568.069 211.85 572.91 205.45 575.34 204.63C577.74 203.76 577.659 204.36 580.979 203.06C584.299 201.71 590.069 197.97 592.799 196.91C595.519 195.8 600 193 603.96 190.04C607.89 187.08 614.779 181.12 615.629 180.68C616.469 180.24 615.71 178.45 615.15 177.5C614.63 176.5 615.919 174.3 615.479 173.8C615.049 173.3 611.849 174.72 610.469 175.22C609.099 175.72 608.419 174.35 609.349 173.91C610.239 173.46 608.99 172.08 607.71 171.72C606.38 171.38 606.949 170.46 606.569 169.7C606.199 168.97 609.849 168.48 609.219 167.63C608.599 166.82 605.579 169.45 604.639 169.23C603.689 168.97 605.349 168.41 606.259 166.96L606.28 166.9ZM477.409 144.3C476.569 145.18 475.709 147.09 473.599 147.51C471.439 147.89 471.199 148.7 470.679 149.37C470.149 150.06 466.849 151.38 466.849 151.38C466.849 151.38 469.389 148.87 469.639 148.17C469.829 147.51 471.439 147.08 473.759 145.87C476.119 144.68 478.229 143.37 477.409 144.29V144.3ZM525.749 153.87C523.549 154.58 526.29 152.79 526.84 152.49C527.37 152.19 529.4 151.39 529.4 151.39C528.55 152.06 527.979 153.18 525.749 153.87ZM573.59 198.77C573.05 199.4 570.799 201.1 569.329 201.59C567.799 202.08 565.15 204.08 565.15 204.08C565.02 202.08 567.079 201.69 568.359 201.29C569.649 200.89 571.129 199.69 571.979 199.18C572.829 198.71 574.12 198.2 573.59 198.77Z" fill="#003C64"/>
<path fill-rule="evenodd" clip-rule="evenodd" d="M486.799 61.1703C486.799 61.1703 487.65 60.0703 487.13 60.0703C486.61 60.0703 486.799 61.1703 486.799 61.1703Z" fill="#003C64"/>
<path fill-rule="evenodd" clip-rule="evenodd" d="M485.62 59.2494C486.37 58.8494 487.03 57.3594 487.03 57.3594L485 58.9594L485.62 59.2494Z" fill="#003C64"/>
<path fill-rule="evenodd" clip-rule="evenodd" d="M497.18 52.0599C497.18 51.6699 495.43 53.3599 495.43 53.8499C495.43 53.8499 497.18 52.4699 497.18 52.0599Z" fill="#003C64"/>
<path fill-rule="evenodd" clip-rule="evenodd" d="M486.69 33.4993C486.61 33.1193 485.11 36.0093 485.11 36.0093C485.11 36.0093 486.81 33.9093 486.69 33.4993Z" fill="#003C64"/>
<path fill-rule="evenodd" clip-rule="evenodd" d="M466.1 20.771C466.1 20.141 464.73 20.831 465.03 21.441C465.03 21.441 466.1 21.351 466.1 20.771Z" fill="#003C64"/>
<path fill-rule="evenodd" clip-rule="evenodd" d="M427.09 135.28C428.71 134.65 428.58 133.11 428.64 131.85C428.68 130.58 429.52 130.32 431.35 128.71C433.21 127.05 437.49 124.61 439.7 123.86C441.88 123.11 443.81 121.2 445.17 119.64C446.53 118.06 447.91 117.5 450.04 116.72C452.14 115.92 455.12 112.88 458.93 110.28C462.34 107.9 469.01 104.15 472.73 101.28H468.32C468.26 101.69 467.99 102.27 467.69 102.39C467.13 102.57 466.66 102.79 466.1 103.38C465.55 103.99 463.96 103.99 463.96 103.99C464.72 103.8 466.49 102.07 467.52 101.29H464.72C464.43 101.27 464.14 101.19 463.88 101.17C463.36 101.54 463.01 101.81 462.9 101.9C462.35 102.28 461.62 101.37 460.76 100.98C459.89 100.59 460.22 101.8 460.44 102.29C460.64 102.8 458.75 103.08 457.57 102.8C456.39 102.49 455.62 102.7 453.82 103.7C451.98 104.68 449.04 106.78 447.83 107.88C446.65 109 441.75 110.68 441.75 110.68C441.75 110.68 443.46 109.59 444.88 108.59C446.23 107.58 450.32 104.4 449.75 104.59C449.22 104.81 445.57 105.59 444 107C442.39 108.38 435.87 112.19 435.87 112.19C435.87 112.19 436.73 109.77 438.66 109.29C440.54 108.8 442.73 106.69 442.73 105.49C442.73 104.29 444.3 103.69 445.9 102.99C447.52 102.28 448.59 101.18 449.53 100.19C449.89 99.8203 451.02 99.0202 452.45 98.1002C444.26 94.5502 438.93 88.8803 435.68 84.3703C434.34 84.9703 432.98 85.6803 432.15 86.2303C430.76 87.1203 427.12 89.8102 425.64 89.8102C424.16 89.8102 423.75 91.0103 422.24 92.1203C420.73 93.2103 418.91 93.2102 417.99 94.2002C416.98 95.2002 413.89 96.2002 413.38 97.4902C412.83 98.8002 402.79 104.19 400.46 104.79C398.08 105.36 397.36 105.58 396.6 106.57C395.86 107.56 393.2 108.46 393.2 108.46C393.2 108.46 397.36 103.55 398.83 102.86C400.37 102.19 403.65 99.4902 403.65 99.4902C403.65 99.4902 404.49 98.6802 405.68 98.5702C406.86 98.4802 410.38 96.8002 411.22 95.1002C412.07 93.3902 413.04 94.4902 414.51 93.5002C416.03 92.5102 418.16 90.4002 419.88 90.1302C421.56 89.8002 422.53 88.0002 424.56 87.7202C426.57 87.4002 427.99 86.7203 430.02 85.6903C431.41 85.0303 433.46 84.3102 435.11 83.5302C432.65 79.9502 431.59 77.2203 431.59 77.2203H419.43C401.06 48.5803 368.98 49.1002 368.98 49.1002V128.13C368.74 130.4 371.57 130.49 373.06 131.08C374.55 131.66 372.35 133.28 372.1 133.35C371.81 133.47 373.88 134.58 375.95 134.15C378.01 133.71 382.74 131 385.87 129.59C388.95 128.15 392.17 126.25 393.34 124.93C394.47 123.62 395.75 122.62 397.65 121.74C399.51 120.84 400.11 119.04 400.95 118.64C401.8 118.22 401.94 120.11 403.6 119.96C405.19 119.81 405.37 117.43 406.08 117.23C406.76 117.02 406.17 117.89 406.24 118.78C406.3 119.68 407.49 120.79 408.94 121.59C410.34 122.39 407.83 124.27 408.07 126.36C408.34 128.49 409.48 126.33 410.51 126.95C411.49 127.61 409.12 130.11 409.12 130.11C409.12 130.11 408.69 129.07 408.14 129.21C407.56 129.37 408.28 130.74 407.25 131.2C406.18 131.64 404.28 133.99 403.81 134.58C403.35 135.17 404.14 135.17 405.03 135.37C405.91 135.58 406.67 133.88 407.5 133.33C408.35 132.7 409.09 135.72 410.23 136.51C411.39 137.3 413.44 136.45 413.44 136.45C413.44 136.45 410.91 137.44 411.02 139.16C411.15 140.88 411.33 141.24 412.49 142.16C413.66 143.11 414.91 141.87 417.02 140.35C419.13 138.82 422.7 138.38 423.98 138.28C425.26 138.2 425.44 135.94 427.07 135.28H427.09Z" fill="#003C64"/>
<path fill-rule="evenodd" clip-rule="evenodd" d="M423.37 70.89H436.02C437.46 74.6 439.11 77.7 440.92 80.37C441.64 80 442.32 79.7 442.68 79.53H442.73C442.8 79.48 442.84 79.46 442.89 79.46C442.84 79.46 442.76 79.51 442.67 79.53C442.09 79.79 441.58 80.19 441.09 80.64C446.91 89.14 454.15 92.63 460.55 94.03C462.68 93.17 464.13 91.88 465.88 91.1C467.05 90.62 467.56 90.14 469.18 89.9C470.76 89.7 472.06 89.31 473.35 88.32C474.62 87.33 476.56 86.01 478.5 85.52C480.39 85.03 482.61 82.79 483.15 83.01C483.68 83.23 481.88 84.7 481.03 85.11C480.16 85.52 479.85 87.11 477.61 88C475.37 88.89 474.41 90.8 473.11 90.91C471.86 91 471.95 91.7 470.36 92.79C469.28 93.53 468.76 94.1 468.5 94.9H488.72V95.41C491.2 93.78 501.46 87.94 507.9 85.03C514.7 81.98 519.34 79.45 519.34 79.45C519.34 79.45 505.47 90.57 503.05 91.33C500.63 92.11 500.44 93.75 497.11 95.38C495.57 96.16 492.14 98.54 488.72 101.03V106.88H530.32C530.3 106.02 531.61 104.37 530.72 103.95C529.61 103.47 531.23 101.39 530.32 100.86C529.46 100.33 528.9 99.32 528.02 98.25C527.18 97.16 524.39 96.56 523.01 97.16C521.64 97.76 521.41 97.16 522.1 95.83C522.75 94.48 534.98 87.43 537.93 84.92C540.88 82.43 545.36 79.32 545.33 78.39C545.25 77.44 546.94 74.15 545.4 73.17C543.9 72.17 544.1 69.23 541.45 69.11C538.82 69.02 531.64 71.7 529.87 73.36C528.09 75.02 522.83 77.52 522.83 77.52C522.83 77.52 526.38 74.28 526.8 73.06C527.23 71.82 529.69 69.72 529.07 68.46C528.44 67.18 526.93 67.52 526.54 66.78C526.16 66.03 528.22 64.95 527.55 64.29C526.94 63.66 521.91 64.59 520.81 63.66C519.71 62.72 518.62 62.86 517.95 63.45C517.33 63.94 516.7 64.4 515.62 64.16C514.5 63.91 508.06 69.26 507.55 68.95C507.02 68.58 508.65 67.06 508.61 66.31C508.54 65.57 510.83 63.81 510.83 63.81C510.83 63.81 508.8 62.66 507.46 61.85C506.17 60.99 507.38 58.34 504.64 57.94C501.9 57.56 499.62 58.18 497.73 59C495.83 59.77 492.87 61.45 489.18 63.06C485.51 64.7 484.55 63.86 483.51 63.45C482.45 62.97 485.57 60.35 484.45 60.07C483.37 59.78 480.49 62.68 479.81 61.86C479.2 61 484.45 58.11 484.51 57.27C484.55 56.42 483.45 57.27 482.04 57.9C480.62 58.54 479.96 58.19 480.62 57.08C481.26 55.94 479.81 55.19 480.53 54.03C481.19 52.84 480.98 52.08 480.4 52.87C479.8 53.67 478.51 54.55 478.51 54.55C478.51 54.55 479.04 52.8 479.45 51.98C479.87 51.14 478.41 48.26 480.65 47.41C482.94 46.6 483 43.94 482.73 42.69C482.44 41.47 484.11 40.55 484.36 39.78C484.63 39.05 480.22 40.14 479.29 39.66C478.4 39.16 480.82 37.18 482.44 36.19C484.11 35.22 485.93 33 485.93 33C485.93 33 482.06 34.78 480.24 35.8C478.4 36.84 476.49 36.19 475.55 35.55C474.94 35.14 476.32 34.16 477.07 33.71C475.87 34.23 474.12 33.1 473.73 32.52C473.32 31.87 472.24 31.38 473.61 31.38C474.98 31.38 477.14 29.16 477.14 29.16C477.14 29.16 475.04 29.77 472.77 29.62C470.51 29.4 467.59 30.33 466.54 30.27C465.41 30.24 464.3 30.27 463.54 29.62C462.82 29 460.37 30.21 460.37 30.21C460.37 30.21 461.81 30.49 461.62 31.05C461.4 31.68 457.72 33.63 457.67 33.19C457.61 32.72 459.23 30.55 459.23 30.55C459.23 30.55 458.13 30.72 456.34 31.75C454.58 32.77 454.79 32.99 452.22 32.77C449.66 32.57 447.08 34.62 447.08 34.62C449.09 32.57 451.72 31.89 454.5 30.25C457.28 28.64 458.04 29.49 458.42 28.56C458.79 27.6 458.94 26.68 459.94 25.09C460.88 23.55 462.28 23.27 462.28 23.27C459.11 20.62 462.91 19.77 462.91 19.77C462.91 19.77 462.66 19.63 461.04 19.77C459.38 19.92 458.95 19.09 458.79 18.51C458.54 17.89 461.06 16 461.06 16C457.22 17.5 455.69 15.6 452.08 16.1C448.44 16.59 441.21 21.7 438.95 21.56C436.71 21.51 432.96 24.66 429.83 27.3C426.74 29.99 421.67 31.2 420.25 32.54C418.84 33.85 417.48 33.12 416.57 34.05C415.68 34.98 415.19 33.99 413.87 35.99C412.55 37.96 411.56 37.23 411.22 37.07C410.92 36.93 413.57 32.68 413.57 32.68C413.57 32.68 412.54 32.84 412.07 32.41C411.6 32.03 413.3 29.85 413.3 29.85L411.16 30.46C411.16 30.46 414.5 25.94 413.98 25.77C413.44 25.63 410.23 26.95 409.45 27.29C408.68 27.65 408.55 26.87 410.09 25.37C411.6 23.91 415.18 20.7 414.75 21.09C414.36 21.5 411.98 20.8 410.2 19.98C408.38 19.1 405.45 20.52 404.18 21.2C402.92 21.89 399.59 21.3 395.08 23.77C390.55 26.24 381.67 30.8 379.66 32.38C377.59 33.96 375.43 34.47 373.22 36.03C370.99 37.58 368.94 37.76 368.94 37.76V41.44C368.94 41.44 371.38 40.36 372.52 39.81C373.7 39.25 375.32 38.82 375.01 39.33C374.7 39.81 368.85 42.72 368.85 42.72C406.31 43.44 423.36 70.86 423.36 70.86L423.37 70.89ZM476.97 52.47C477.07 51.67 477.73 50.47 477.73 50.47C477.73 50.47 478.89 52.87 477.86 53.58C476.78 54.28 476.87 53.28 476.97 52.47ZM452.64 73.81C454.36 73.32 455.3 71.97 457.03 71.15C458.76 70.33 460.99 68.96 460.99 68.96C460.99 68.96 459.79 70.03 458.6 70.83C457.47 71.63 456.93 72.13 454.88 73.31C452.87 74.53 449.15 75.94 449.15 75.94C449.15 75.94 450.95 74.35 452.65 73.81H452.64Z" fill="#003C64"/>
<path fill-rule="evenodd" clip-rule="evenodd" d="M546.58 77.3296C546.13 77.4296 546.13 78.9196 546.13 78.9196C547.11 78.8396 546.99 77.2196 546.58 77.3296Z" fill="#003C64"/>
<path fill-rule="evenodd" clip-rule="evenodd" d="M588.93 158.461C589.16 157.751 586.39 159.961 586.39 159.961C586.39 159.961 588.73 159.151 588.93 158.461Z" fill="#003C64"/>
<path fill-rule="evenodd" clip-rule="evenodd" d="M609.37 149.279C609.75 149.769 610.41 149.769 610.41 149.769C610.41 149.769 611.9 149.479 612.33 148.699C612.78 147.889 611.58 148.069 610.85 148.489C610.06 148.879 608.93 148.759 609.37 149.279Z" fill="#003C64"/>
<path fill-rule="evenodd" clip-rule="evenodd" d="M618.19 172.84C617.93 173.24 617.45 173.99 617.05 174.68C617.34 174.29 617.72 173.99 618.09 173.93C619.05 173.84 619.79 174.24 619.9 173.03C619.99 171.85 618.72 172.03 618.18 172.83L618.19 172.84Z" fill="#003C64"/>
<path fill-rule="evenodd" clip-rule="evenodd" d="M617.05 174.68C616.62 175.29 616.29 176.02 616.29 176.02C616.29 176.02 616.64 175.39 617.05 174.68Z" fill="#003C64"/>
<path fill-rule="evenodd" clip-rule="evenodd" d="M499.499 198.199C498.829 197.179 498.649 198.589 498.189 198.769C498.189 198.769 500.119 199.179 499.499 198.199Z" fill="#003C64"/>
<path fill-rule="evenodd" clip-rule="evenodd" d="M19.4797 343.85L12.4297 342.69L24.9097 280.99L30.9597 275.51L43.6297 342.7L37.1297 343.86L28.1597 295.27L19.4897 343.86L19.4797 343.85ZM21.5797 332.78H34.6497L28.1497 340.99L21.5797 332.78Z" fill="#003C64"/>
<path fill-rule="evenodd" clip-rule="evenodd" d="M50.1992 342.68V277.51H57.0692V336.08H68.7392L71.1692 342.68H50.1992Z" fill="#003C64"/>
<path fill-rule="evenodd" clip-rule="evenodd" d="M80.0293 343.85L72.9893 342.69L85.4492 280.99L91.5092 275.51L104.159 342.7L97.6492 343.86L88.6992 295.27L80.0293 343.86V343.85ZM82.1093 332.78H95.2193L88.6992 340.99L82.1093 332.78Z" fill="#003C64"/>
<path fill-rule="evenodd" clip-rule="evenodd" d="M120.78 296.6L112.84 344.03L106.33 342.83L117.62 281.23L123.42 275.82L127.85 311.49L132.64 281.07L138.59 275.66L148.18 342.68L141.93 343.85L135.8 296.44L127.3 340.56L120.78 296.6Z" fill="#003C64"/>
<path fill-rule="evenodd" clip-rule="evenodd" d="M167.88 283.09C170.49 283.09 172.41 284.45 173.67 287.23C174.93 290.01 175.75 293.21 176.11 296.94C176.37 300.75 176.55 305.06 176.55 310.14C176.55 315.22 176.37 319.33 176.01 323.24C175.74 327.04 174.92 330.34 173.66 333.12C172.4 335.92 170.39 337.26 167.87 337.26C165.35 337.26 163.26 335.91 161.9 333.12C160.63 330.35 159.83 327.04 159.48 323.33C159.19 319.62 159.02 315.22 159.02 310.15C159.02 305.08 159.19 300.51 159.48 296.88C159.73 293.14 160.56 290.02 161.82 287.24C163.08 284.45 165.07 283.1 167.69 283.1H167.87L167.88 283.09ZM183.4 310.14C183.4 303.7 183.14 298.22 182.59 293.57C181.98 289 180.62 285.03 178.28 281.68C176.02 278.36 172.6 276.68 167.88 276.68C164.27 276.68 161.47 277.69 159.28 279.72C157.12 281.68 155.49 284.27 154.49 287.58C153.5 290.77 152.78 294.26 152.49 297.89C152.24 301.44 152.14 305.59 152.14 310.15C152.14 314.71 152.24 318.85 152.49 322.4C152.78 326.03 153.5 329.5 154.49 332.79C155.48 336.09 157.12 338.8 159.28 340.81C161.46 342.83 164.27 343.85 167.88 343.85C172.6 343.85 176.02 342.17 178.28 338.79C180.62 335.41 181.98 331.42 182.59 326.79C183.14 322.13 183.4 316.56 183.4 310.15V310.14Z" fill="#003C64"/>
<path fill-rule="evenodd" clip-rule="evenodd" d="M223.989 342.68H217.229V284.1H210.529L213.069 277.51H231.589L228.889 284.1H223.989V342.68Z" fill="#003C64"/>
<path fill-rule="evenodd" clip-rule="evenodd" d="M260.519 277.51L262.949 284.1H247.769V309.97H262.139V316.56H247.969V336.08H262.139V342.68H240.909V316.56H235.489L237.919 310.14H240.909V277.51H260.519Z" fill="#003C64"/>
<path fill-rule="evenodd" clip-rule="evenodd" d="M292.16 277.51L294.6 284.1H279.42V309.97H293.78V316.56H279.58V336.08H293.78V342.68H272.52V316.56H267.1L269.55 310.14H272.52V277.51H292.16Z" fill="#003C64"/>
<path fill-rule="evenodd" clip-rule="evenodd" d="M320.6 281.4L314.28 283.77C309.87 285.47 307.5 288.51 307.14 292.81C307.34 294.25 307.59 295.61 308.23 296.94L319.34 321.02C320.24 323.07 320.8 325.17 320.8 327.62C320.8 331.01 319.71 333.95 317.46 336.67C315.19 339.3 312.39 341.14 309.14 342.32L303.16 344.44L300.45 338.36L306.49 336.41C308.76 335.73 310.47 334.64 311.74 333.03C313.09 331.41 313.72 329.64 313.72 327.62C313.72 326.1 313.47 324.57 312.82 323.23L301.7 299.4C300.71 297.28 300.27 295.09 300.09 292.8C300.17 289.5 301.27 286.46 303.35 283.76C305.33 281.06 308.13 279.03 311.74 277.76L317.97 275.49L320.58 281.39L320.6 281.4Z" fill="#003C64"/>
<path fill-rule="evenodd" clip-rule="evenodd" d="M361.74 311.49L374.75 334.56C371.85 337.01 368.52 338.19 364.72 338.19C361.56 338.19 359.03 337.1 357.13 334.9C355.32 332.62 354.32 329.92 354.32 326.7C354.67 324.42 355.14 322.47 355.69 320.79C356.24 319.09 356.96 317.41 357.96 315.88C358.95 314.28 360.2 312.86 361.75 311.49H361.74ZM366.43 307.69C368.17 306.26 369.7 304.83 371.13 303.54C372.6 302.28 373.93 301.03 375.11 299.68C376.38 298.23 377.38 296.7 378.09 295C378.89 293.33 379.35 291.54 379.35 289.52C379.35 285.64 378.2 282.43 375.82 280.08C373.46 277.7 370.13 276.43 365.7 276.34C363.25 276.34 361.01 277.02 359.02 278.38C357.04 279.63 355.5 281.42 354.41 283.62C353.24 285.73 352.59 288.02 352.7 290.36C352.79 292.39 353.14 294.27 353.69 295.94C354.23 297.54 354.86 298.99 355.42 300.09C356.02 301.27 357.21 303.29 358.83 306.18C357.04 307.78 355.5 309.39 354.14 311C352.8 312.59 351.63 314.45 350.51 316.75C349.45 318.93 348.82 321.46 348.45 324.32C348.36 325.44 348.27 326.27 348.27 326.87C348.27 331.6 349.71 335.65 352.5 338.8C355.31 342.01 359.2 343.62 364.34 343.7C369.41 343.7 373.85 342.19 377.54 339.22L380.88 345.65L385.85 342.71L381.6 335.26L388.84 327.82L384.49 323.85L378.82 330.01L366.41 307.7L366.43 307.69ZM358.83 289.51C358.83 287.33 359.49 285.47 360.82 284.04C362.1 282.58 363.81 281.91 365.89 281.91C367.25 281.91 368.42 282.17 369.5 282.74C370.49 283.34 371.39 284.18 371.94 285.28C372.59 286.31 372.84 287.58 372.84 289C372.84 293.13 370.59 296.94 366.08 300.59L363.62 302.52C361.99 299.82 360.82 297.53 360.03 295.6C359.21 293.66 358.83 291.62 358.83 289.5V289.51Z" fill="#003C64"/>
<path fill-rule="evenodd" clip-rule="evenodd" d="M428.99 340.99L435.49 332.78H422.39L428.99 340.99ZM428.99 295.26L437.92 343.85L444.43 342.69L431.78 275.5L425.71 280.98L413.24 342.68L420.3 343.84L428.98 295.25L428.99 295.26Z" fill="#003C64"/>
<path fill-rule="evenodd" clip-rule="evenodd" d="M455.9 336.239V284.269H461.24C463.88 284.269 465.75 285.109 467.1 286.819C468.46 288.499 469.37 290.609 469.74 293.209C470.18 295.849 470.35 298.969 470.35 302.679V316.139C470.35 320.089 470.18 323.569 469.74 326.359C469.37 329.149 468.46 331.499 467.1 333.439C465.75 335.299 463.76 336.229 461.05 336.229H455.89L455.9 336.239ZM449.04 277.609V342.689H461.6C465.13 342.689 467.93 341.659 470.1 339.619C472.28 337.689 473.87 335.159 474.9 332.029C475.89 328.809 476.58 325.509 476.87 322.049C477.14 318.609 477.32 314.619 477.32 310.149C477.32 305.679 477.14 301.679 476.87 298.229C476.58 294.759 475.99 291.469 474.9 288.329C473.87 285.119 472.36 282.579 470.19 280.559C468.01 278.619 465.22 277.609 461.78 277.609H449.04Z" fill="#003C64"/>
<path fill-rule="evenodd" clip-rule="evenodd" d="M497.48 327.98L506.23 276.51L512.75 277.61L499.93 344.97L494.03 339.56L481.59 277.61L488.26 276.33L497.48 327.98Z" fill="#003C64"/>
<path fill-rule="evenodd" clip-rule="evenodd" d="M520.159 277.51V310.14H517.19L514.75 316.56H520.159V342.68H541.409V336.08H527.229V316.56H541.409V309.97H527.039V284.1H542.219L539.799 277.51H520.159Z" fill="#003C64"/>
<path fill-rule="evenodd" clip-rule="evenodd" d="M564.9 315.97L574.22 342L568.44 344.02L556.79 309.97H558.31C560.12 309.97 561.57 309.63 562.66 309.03C563.73 308.44 564.63 307.19 565.27 305.33C565.9 303.46 566.26 300.66 566.26 296.94C566.18 293.57 565.9 290.96 565.27 289.18C564.72 287.32 563.82 285.96 562.57 285.2C561.37 284.44 559.64 284.09 557.5 284.09H555.67V342.68H548.99V277.5H558.05C561.58 277.5 564.48 278.01 566.65 279.11C568.8 280.21 570.51 282.16 571.62 285.03C572.78 287.83 573.44 291.79 573.44 296.94C573.44 300.83 573.14 303.96 572.52 306.41C571.88 308.86 571.15 310.7 570.23 311.92C569.44 313.17 568.56 314.03 567.64 314.43C566.73 314.94 566.1 315.28 565.82 315.45L564.92 315.96L564.9 315.97Z" fill="#003C64"/>
<path fill-rule="evenodd" clip-rule="evenodd" d="M590.68 342.68H583.91V284.1H577.2L579.75 277.51H598.26L595.55 284.1H590.68V342.68Z" fill="#003C64"/>
<path fill-rule="evenodd" clip-rule="evenodd" d="M614.27 277.51V342.68H607.57V277.51H614.27Z" fill="#003C64"/>
<path fill-rule="evenodd" clip-rule="evenodd" d="M643.27 281.4L636.94 283.77C632.52 285.47 630.169 288.51 629.799 292.81C629.999 294.25 630.26 295.61 630.89 296.94L642.01 321.02C642.9 323.07 643.45 325.17 643.45 327.62C643.45 331.01 642.37 333.95 640.12 336.67C637.85 339.3 635.059 341.14 631.789 342.32L625.83 344.44L623.09 338.36L629.169 336.41C631.429 335.73 633.13 334.64 634.39 333.03C635.75 331.41 636.39 329.64 636.39 327.62C636.39 326.1 636.11 324.57 635.49 323.23L624.37 299.4C623.39 297.28 622.93 295.09 622.75 292.8C622.86 289.5 623.93 286.46 626.02 283.76C627.98 281.06 630.8 279.03 634.4 277.76L640.64 275.49L643.27 281.39V281.4Z" fill="#003C64"/>
<path fill-rule="evenodd" clip-rule="evenodd" d="M659.63 277.51V342.68H652.93V277.51H659.63Z" fill="#003C64"/>
<path fill-rule="evenodd" clip-rule="evenodd" d="M676.26 295.76V342.5H669.41V280.79L675.16 275.32L692.35 323.33V277.51L699.04 277.61V342.68L694.25 344.78L676.26 295.76Z" fill="#003C64"/>
<path fill-rule="evenodd" clip-rule="evenodd" d="M730.68 340.38L729.95 341.14C728.24 342.99 725.62 344.02 721.8 344.02C718.38 344.02 715.49 343 713.31 340.99C711.15 338.95 709.61 336.33 708.51 333.04C707.52 329.74 706.8 326.26 706.52 322.56C706.26 318.92 706.09 314.85 706.09 310.47C706.09 305.65 706.18 301.52 706.45 297.97C706.72 294.32 707.25 290.96 708.24 287.66C709.24 284.36 710.88 281.68 713.02 279.62C715.22 277.61 718.11 276.51 721.79 276.51C724.68 276.51 727.58 277.44 730.11 279.45L731.21 280.32L728.49 287.4L727.76 286.39C726.24 284.27 724.34 283.09 721.8 283.09C719.26 283.09 717.48 283.93 716.1 285.71C714.84 287.4 713.94 289.69 713.5 292.38C713.13 295.18 712.68 298.38 712.77 302.2C712.77 304.12 712.96 306.85 712.96 310.47C712.96 314.54 712.77 317.64 712.77 319.84C712.68 323.4 713.12 326.43 713.57 328.89C714.02 331.35 714.93 333.37 716.2 334.98C717.55 336.57 719.36 337.33 721.79 337.33C722.07 337.33 722.68 337.25 723.6 337.09V316.73H718.1L720.69 310.13H730.67V340.37L730.68 340.38Z" fill="#003C64"/>
<path d="M731.22 253.279H12.4199V258.969H731.22V253.279Z" fill="#003C64"/>
<path d="M731.22 360.381H12.4199V366.071H731.22V360.381Z" fill="#003C64"/>
</svg>
