<svg width="745" height="383" viewBox="0 0 745 383" fill="none" xmlns="http://www.w3.org/2000/svg">
<path fill-rule="evenodd" clip-rule="evenodd" d="M314.509 70.8898H301.889L301.039 72.9198C292.499 93.5298 273.569 94.8798 272.739 94.9598L249.179 94.9098V107.05H184.039V189.14H190.859V113.42H256.009V101.29H272.999C274.109 101.27 295.719 99.6598 306.319 77.2498H318.459L319.419 75.6098C320.019 74.5798 334.709 50.3498 369.069 49.1198L368.859 42.7598C335.409 43.9698 318.719 64.7698 314.509 70.8998V70.8898Z" fill="white"/>
<path fill-rule="evenodd" clip-rule="evenodd" d="M555.57 126.22C555.2 125.53 553.57 124.9 552.43 124.25V130.3C552.73 130.09 552.97 129.91 553.13 129.83C554.89 128.98 556.06 127.12 555.57 126.22Z" fill="white"/>
<path fill-rule="evenodd" clip-rule="evenodd" d="M537.138 104.69C535.458 104.9 533.498 106.21 532.078 106.89H550.488C549.978 106.24 549.548 105.67 549.268 105.34C548.408 104.23 547.838 102.23 545.238 102.57C542.658 102.92 539.638 104.4 537.138 104.7V104.69Z" fill="white"/>
<path fill-rule="evenodd" clip-rule="evenodd" d="M606.28 166.9C607.2 165.47 610.349 163.52 611.929 162.66C613.509 161.77 614.199 160.44 614.189 159.21C614.149 157.98 614.569 158.16 616.129 157.24C617.709 156.28 616.619 155.99 615.359 156.16C614.089 156.28 614.899 154.72 614.349 153.89C613.799 153.05 614.509 152.54 614.969 151.26C615.439 150.02 616.189 148.12 616.189 148.12C616.189 148.12 614.35 148.76 612.78 149.96C611.2 151.14 610.819 150.51 608.759 151.19C606.699 151.88 603.059 154.29 603.059 154.29C603.059 154.29 605.549 152.27 606.229 151.73C606.919 151.19 608.429 149.29 609.819 148.04C611.259 146.8 614.159 145.14 614.639 144.69C615.079 144.25 614.819 143.5 613.219 143.61C611.589 143.72 610.299 144.72 608.039 146.46C605.799 148.18 596.98 154.14 596.02 155.04C595.09 155.93 594.819 157.88 594.409 157.48C593.959 157.11 593.079 157.25 593.079 158.36C593.079 159.47 591.769 159.56 592.349 159.67C592.939 159.77 593.339 159.7 594.409 158.68C595.459 157.64 597.77 157.3 597.46 157.99C597.14 158.68 594.29 160.32 593.09 161.52C591.89 162.76 584.599 167.57 581.189 169.89C577.769 172.2 577.559 174.52 575.749 175.62C573.959 176.71 571.249 176.99 570.289 176.15C569.359 175.32 570.23 173.3 572.96 171.25C575.71 169.18 578.549 167.55 580.869 165.17C583.169 162.8 585.15 161.11 586.21 159.15C587.24 157.15 587.579 153.49 586.569 152.84C585.529 152.15 586.399 151.19 587.289 150.59C588.179 150.03 588.619 148.67 587.989 148.25C587.339 147.8 587.629 147.41 588.859 146.95C590.129 146.52 588.25 145.07 586.71 144.64C585.19 144.2 581.749 144.09 577.109 145.87C572.499 147.65 569.269 148.89 567.379 149.48C565.519 150.05 562.89 150.21 561.65 150.21C560.41 150.21 560.949 149.01 560.429 148.68C559.919 148.33 557.679 149.9 557.679 149.9C557.679 149.9 559.409 148.45 559.609 146.96C559.769 145.49 562.469 145.15 562.639 144.51C562.819 143.86 561.799 143.73 560.559 144.21C559.289 144.7 559.29 142.78 559.77 141.89C560.21 141 561.11 139.05 560.77 139.54C560.48 140.04 559.489 140.22 559.229 139.35C558.949 138.45 557.679 139.05 556.229 139.87C554.709 140.72 553.88 138.85 553.52 138.25C553.44 138.11 552.989 138.18 552.439 138.27V189.15H545.65V140.46C545.02 140.69 544.479 140.88 544.189 141C542.839 141.58 538.939 143.12 537.559 144.95C536.159 146.77 530.369 150.41 530.369 150.04C530.369 149.63 536.77 143.73 537.65 142.93C538.56 142.17 541.079 139.41 544.189 137.91C544.679 137.72 545.16 137.37 545.65 137.01V120.62C545.33 120.5 544.989 120.44 544.719 120.41C542.939 120.14 543.049 119.61 543.789 118.97C544.149 118.66 544.84 117.74 545.65 116.87V113.44H482.039V106.08C480.989 106.91 480.179 107.52 479.789 107.87C477.769 109.56 474.879 111.59 472.309 112.94C469.719 114.31 461.189 120.13 458.659 120.97C456.139 121.83 450.169 125.71 447.639 126.44C445.119 127.19 434.279 133.51 432.989 134.62C431.759 135.76 427.959 137.74 425.889 138.12C423.829 138.53 423.239 139.07 422.169 141.02C421.089 143 417.849 144.84 417.529 145.31C417.209 145.81 417.989 146.19 419.219 146.78C420.419 147.38 421.669 151.04 422.369 151.65C423.039 152.25 426.219 151.62 426.219 151.62C426.219 151.62 426.099 152.3 426.289 153.37C426.419 154.48 429.219 153.51 429.649 154.05C430.089 154.61 428.649 156.32 427.759 156.97C426.839 157.6 427.479 159.05 428.979 159.54C430.409 160.03 430.529 161.04 430.829 162.44C431.159 163.82 431.899 165.35 433.379 164.69C434.849 164.05 435.969 162.22 437.039 161.69C438.089 161.15 438.869 161.13 438.259 163.29C437.589 165.45 437.97 167.51 437.59 168.24C437.22 169 435.609 168.24 434.919 168.56C434.239 168.86 432.919 171.84 432.979 171.52C433.009 171.15 430.779 170.27 430.779 170.27C430.779 170.27 432.089 171.06 432.169 172.92C432.269 174.82 429.989 174.82 428.709 175.05C427.439 175.29 426.969 176.78 428.319 177.6C429.679 178.42 430.259 180.65 432.319 179.97C434.369 179.29 435.899 180.42 436.659 181.18C437.399 181.98 435.509 182.24 436.199 182.79C436.969 183.32 435.969 183.61 435.019 183.97C434.049 184.32 436.879 185.29 438.079 185.53C439.269 185.8 440.079 184.7 440.689 184.16C441.359 183.62 442.48 183.78 445.02 182.96C447.57 182.2 453.699 177.28 456.009 176.36C458.349 175.39 459.449 174.02 462.189 172.16C464.909 170.28 469.459 168.21 471.719 167.37C473.999 166.53 476.569 162.29 478.219 160.57C479.919 158.84 483.3 158.08 485.78 157.28C488.22 156.47 488.629 155.2 489.919 153.83C491.249 152.45 489.889 154.86 491.569 154.37C493.269 153.89 493.46 153.15 496.53 152.56C499.56 151.98 498.959 150.89 497.929 150.27C496.949 149.68 495.249 150.78 493.999 151.62C492.729 152.45 488.199 152.02 488.199 152.02C488.199 152.02 495.209 148.91 496.859 147.97C498.439 147.05 501.21 145.38 504.53 144.58C507.85 143.82 510.929 141.56 510.929 141.56C510.929 141.56 507.47 145.88 505.9 147.32C504.33 148.74 501.949 147.96 501.119 149.91C500.249 151.9 497.58 151.97 495.84 154.01C494.11 156.07 488.939 158.82 486.359 160.4C483.789 162 477.769 165.53 475.609 167.84C473.489 170.16 463.499 175.67 460.509 177.59C457.489 179.53 452.199 182.46 446.719 186.41C441.219 190.36 434.969 194.98 433.679 195.73C432.439 196.46 432.309 197.36 432.219 198.73C432.119 200.1 428.979 201.95 427.909 202.44C426.839 202.88 425.829 203.74 426.909 204.84C427.959 205.93 428.799 205.43 429.659 204.73C430.589 204.07 430.789 205.72 430.819 206.87C430.919 208 432.299 208.23 433.859 208.65C435.349 209.03 435.309 210.65 438.069 210.89C440.809 211.06 440.47 208.84 442.9 208.9C445.32 208.93 447.419 207.75 449.219 206.93C451.009 206.07 455.26 203.17 457.96 200.63C460.71 198.07 467.109 194.73 467.109 194.73C467.109 194.73 467.749 197.03 469.979 197.58C472.209 198.11 470.859 200.81 470.979 201.21C471.069 201.63 472.389 200.86 473.989 199.75C475.549 198.6 478.299 198.5 478.299 198.5C478.299 198.5 478.389 198.89 477.239 199.63C476.089 200.4 475.019 201.92 475.919 202.29C476.779 202.69 479.709 201.82 482.389 201.16C485.089 200.47 490.709 196.19 493.099 195.54C495.469 194.9 496.669 196.73 496.669 196.73C496.669 196.73 498.359 196.07 498.989 196.67C499.609 197.25 502.46 196.82 502.46 196.82C502.46 196.82 500.349 197.4 500.679 198.1C500.999 198.8 500.619 200.3 499.439 200.76C498.309 201.19 495.349 204.9 494.989 206.03C494.589 207.16 496.519 206.52 496.559 208.64C496.599 210.76 494.17 209.96 495.46 210.64C496.71 211.34 497.399 210.76 498.619 210.07C499.809 209.38 498.479 213.41 500.409 213.72C502.269 214.02 504.759 212.95 507.829 211.43C510.879 209.92 518.479 206.33 520.689 204.34C522.869 202.38 523.179 202.46 526.129 199.98C529.119 197.57 528.949 198.48 531.099 196.96C533.259 195.44 535.419 193.38 538.179 192.52C540.909 191.69 541.989 190.8 543.259 189.88C544.509 188.95 545.839 191.21 547.349 190.8C548.879 190.43 549.379 190.61 550.569 190.66C551.789 190.7 555.629 187.56 555.629 187.56C555.629 187.56 553.469 189.62 552.369 190.28C551.269 190.92 547.189 193.56 544.189 196.32C541.189 199.1 539.149 199.76 537.199 202.25C535.259 204.7 531.699 206.62 528.739 208.23C525.799 209.88 528.77 213.91 527.15 215.11C525.52 216.27 527.059 217.14 529.259 217.19C531.459 217.26 530.459 219.23 531.389 219.87C532.279 220.53 536.519 220.32 538.759 218.98C540.979 217.64 545.579 213.73 546.909 212.25C548.209 210.77 550.96 211.55 552.27 210.13C553.59 208.69 555.919 208.5 557.409 208.2C558.169 208.04 559.129 207.59 559.799 207.18C560.379 206.85 560.789 206.58 560.789 206.58C560.789 206.58 560.379 206.86 559.799 207.18C558.509 208 556.44 209.44 555.77 210.8C554.75 212.78 550.439 215.05 549.439 215.7C548.459 216.34 548.189 218.25 551.109 217.15C554.089 216.06 558.439 214.86 560.009 214.72C561.609 214.57 562.929 213.95 564.119 212.66C565.329 211.4 564.919 212.45 566.499 212.16C568.069 211.85 572.91 205.45 575.34 204.63C577.74 203.76 577.659 204.36 580.979 203.06C584.299 201.71 590.069 197.97 592.799 196.91C595.519 195.8 600 193 603.96 190.04C607.89 187.08 614.779 181.12 615.629 180.68C616.469 180.24 615.71 178.45 615.15 177.5C614.63 176.5 615.919 174.3 615.479 173.8C615.049 173.3 611.849 174.72 610.469 175.22C609.099 175.72 608.419 174.35 609.349 173.91C610.239 173.46 608.99 172.08 607.71 171.72C606.38 171.38 606.949 170.46 606.569 169.7C606.199 168.97 609.849 168.48 609.219 167.63C608.599 166.82 605.579 169.45 604.639 169.23C603.689 168.97 605.349 168.41 606.259 166.96L606.28 166.9ZM477.409 144.3C476.569 145.18 475.709 147.09 473.599 147.51C471.439 147.89 471.199 148.7 470.679 149.37C470.149 150.06 466.849 151.38 466.849 151.38C466.849 151.38 469.389 148.87 469.639 148.17C469.829 147.51 471.439 147.08 473.759 145.87C476.119 144.68 478.229 143.37 477.409 144.29V144.3ZM525.749 153.87C523.549 154.58 526.29 152.79 526.84 152.49C527.37 152.19 529.4 151.39 529.4 151.39C528.55 152.06 527.979 153.18 525.749 153.87ZM573.59 198.77C573.05 199.4 570.799 201.1 569.329 201.59C567.799 202.08 565.15 204.08 565.15 204.08C565.02 202.08 567.079 201.69 568.359 201.29C569.649 200.89 571.129 199.69 571.979 199.18C572.829 198.71 574.12 198.2 573.59 198.77Z" fill="white"/>
<path fill-rule="evenodd" clip-rule="evenodd" d="M486.799 61.1703C486.799 61.1703 487.65 60.0703 487.13 60.0703C486.61 60.0703 486.799 61.1703 486.799 61.1703Z" fill="white"/>
<path fill-rule="evenodd" clip-rule="evenodd" d="M485.62 59.2494C486.37 58.8494 487.03 57.3594 487.03 57.3594L485 58.9594L485.62 59.2494Z" fill="white"/>
<path fill-rule="evenodd" clip-rule="evenodd" d="M497.18 52.0599C497.18 51.6699 495.43 53.3599 495.43 53.8499C495.43 53.8499 497.18 52.4699 497.18 52.0599Z" fill="white"/>
<path fill-rule="evenodd" clip-rule="evenodd" d="M486.689 33.4993C486.609 33.1193 485.109 36.0093 485.109 36.0093C485.109 36.0093 486.809 33.9093 486.689 33.4993Z" fill="white"/>
<path fill-rule="evenodd" clip-rule="evenodd" d="M466.101 20.771C466.101 20.141 464.731 20.831 465.031 21.441C465.031 21.441 466.101 21.351 466.101 20.771Z" fill="white"/>
<path fill-rule="evenodd" clip-rule="evenodd" d="M427.089 135.28C428.709 134.65 428.579 133.11 428.639 131.85C428.679 130.58 429.519 130.32 431.349 128.71C433.209 127.05 437.489 124.61 439.699 123.86C441.879 123.11 443.809 121.2 445.169 119.64C446.529 118.06 447.909 117.5 450.039 116.72C452.139 115.92 455.119 112.88 458.929 110.28C462.339 107.9 469.009 104.15 472.729 101.28H468.319C468.259 101.69 467.989 102.27 467.689 102.39C467.129 102.57 466.659 102.79 466.099 103.38C465.549 103.99 463.959 103.99 463.959 103.99C464.719 103.8 466.489 102.07 467.519 101.29H464.719C464.429 101.27 464.139 101.19 463.879 101.17C463.359 101.54 463.009 101.81 462.899 101.9C462.349 102.28 461.619 101.37 460.759 100.98C459.889 100.59 460.219 101.8 460.439 102.29C460.639 102.8 458.749 103.08 457.569 102.8C456.389 102.49 455.619 102.7 453.819 103.7C451.979 104.68 449.039 106.78 447.829 107.88C446.649 109 441.749 110.68 441.749 110.68C441.749 110.68 443.459 109.59 444.879 108.59C446.229 107.58 450.319 104.4 449.749 104.59C449.219 104.81 445.569 105.59 443.999 107C442.389 108.38 435.869 112.19 435.869 112.19C435.869 112.19 436.729 109.77 438.659 109.29C440.539 108.8 442.729 106.69 442.729 105.49C442.729 104.29 444.299 103.69 445.899 102.99C447.519 102.28 448.589 101.18 449.529 100.19C449.889 99.8203 451.019 99.0202 452.449 98.1002C444.259 94.5502 438.929 88.8803 435.679 84.3703C434.339 84.9703 432.979 85.6803 432.149 86.2303C430.759 87.1203 427.119 89.8102 425.639 89.8102C424.159 89.8102 423.749 91.0103 422.239 92.1203C420.729 93.2103 418.909 93.2102 417.989 94.2002C416.979 95.2002 413.889 96.2002 413.379 97.4902C412.829 98.8002 402.789 104.19 400.459 104.79C398.079 105.36 397.359 105.58 396.599 106.57C395.859 107.56 393.199 108.46 393.199 108.46C393.199 108.46 397.359 103.55 398.829 102.86C400.369 102.19 403.649 99.4902 403.649 99.4902C403.649 99.4902 404.489 98.6802 405.679 98.5702C406.859 98.4802 410.379 96.8002 411.219 95.1002C412.069 93.3902 413.039 94.4902 414.509 93.5002C416.029 92.5102 418.159 90.4002 419.879 90.1302C421.559 89.8002 422.529 88.0002 424.559 87.7202C426.569 87.4002 427.989 86.7203 430.019 85.6903C431.409 85.0303 433.459 84.3102 435.109 83.5302C432.649 79.9502 431.589 77.2203 431.589 77.2203H419.429C401.059 48.5803 368.979 49.1002 368.979 49.1002V128.13C368.739 130.4 371.569 130.49 373.059 131.08C374.549 131.66 372.349 133.28 372.099 133.35C371.809 133.47 373.879 134.58 375.949 134.15C378.009 133.71 382.739 131 385.869 129.59C388.949 128.15 392.169 126.25 393.339 124.93C394.469 123.62 395.749 122.62 397.649 121.74C399.509 120.84 400.109 119.04 400.949 118.64C401.799 118.22 401.939 120.11 403.599 119.96C405.189 119.81 405.369 117.43 406.079 117.23C406.759 117.02 406.169 117.89 406.239 118.78C406.299 119.68 407.489 120.79 408.939 121.59C410.339 122.39 407.829 124.27 408.069 126.36C408.339 128.49 409.479 126.33 410.509 126.95C411.489 127.61 409.119 130.11 409.119 130.11C409.119 130.11 408.689 129.07 408.139 129.21C407.559 129.37 408.279 130.74 407.249 131.2C406.179 131.64 404.279 133.99 403.809 134.58C403.349 135.17 404.139 135.17 405.029 135.37C405.909 135.58 406.669 133.88 407.499 133.33C408.349 132.7 409.089 135.72 410.229 136.51C411.389 137.3 413.439 136.45 413.439 136.45C413.439 136.45 410.909 137.44 411.019 139.16C411.149 140.88 411.329 141.24 412.489 142.16C413.659 143.11 414.909 141.87 417.019 140.35C419.129 138.82 422.699 138.38 423.979 138.28C425.259 138.2 425.439 135.94 427.069 135.28H427.089Z" fill="white"/>
<path fill-rule="evenodd" clip-rule="evenodd" d="M423.372 70.89H436.022C437.462 74.6 439.112 77.7 440.922 80.37C441.642 80 442.322 79.7 442.682 79.53H442.732C442.802 79.48 442.842 79.46 442.892 79.46C442.842 79.46 442.762 79.51 442.672 79.53C442.092 79.79 441.582 80.19 441.092 80.64C446.912 89.14 454.152 92.63 460.552 94.03C462.682 93.17 464.132 91.88 465.882 91.1C467.052 90.62 467.562 90.14 469.182 89.9C470.762 89.7 472.062 89.31 473.352 88.32C474.622 87.33 476.562 86.01 478.502 85.52C480.392 85.03 482.612 82.79 483.152 83.01C483.682 83.23 481.882 84.7 481.032 85.11C480.162 85.52 479.852 87.11 477.612 88C475.372 88.89 474.412 90.8 473.112 90.91C471.862 91 471.952 91.7 470.362 92.79C469.282 93.53 468.762 94.1 468.502 94.9H488.722V95.41C491.202 93.78 501.462 87.94 507.902 85.03C514.702 81.98 519.342 79.45 519.342 79.45C519.342 79.45 505.472 90.57 503.052 91.33C500.632 92.11 500.442 93.75 497.112 95.38C495.572 96.16 492.142 98.54 488.722 101.03V106.88H530.322C530.302 106.02 531.612 104.37 530.722 103.95C529.612 103.47 531.232 101.39 530.322 100.86C529.462 100.33 528.902 99.32 528.022 98.25C527.182 97.16 524.392 96.56 523.012 97.16C521.642 97.76 521.412 97.16 522.102 95.83C522.752 94.48 534.982 87.43 537.932 84.92C540.882 82.43 545.362 79.32 545.332 78.39C545.252 77.44 546.942 74.15 545.402 73.17C543.902 72.17 544.102 69.23 541.452 69.11C538.822 69.02 531.642 71.7 529.872 73.36C528.092 75.02 522.832 77.52 522.832 77.52C522.832 77.52 526.382 74.28 526.802 73.06C527.232 71.82 529.692 69.72 529.072 68.46C528.442 67.18 526.932 67.52 526.542 66.78C526.162 66.03 528.222 64.95 527.552 64.29C526.942 63.66 521.912 64.59 520.812 63.66C519.712 62.72 518.622 62.86 517.952 63.45C517.332 63.94 516.702 64.4 515.622 64.16C514.502 63.91 508.062 69.26 507.552 68.95C507.022 68.58 508.652 67.06 508.612 66.31C508.542 65.57 510.832 63.81 510.832 63.81C510.832 63.81 508.802 62.66 507.462 61.85C506.172 60.99 507.382 58.34 504.642 57.94C501.902 57.56 499.622 58.18 497.732 59C495.832 59.77 492.872 61.45 489.182 63.06C485.512 64.7 484.552 63.86 483.512 63.45C482.452 62.97 485.572 60.35 484.452 60.07C483.372 59.78 480.492 62.68 479.812 61.86C479.202 61 484.452 58.11 484.512 57.27C484.552 56.42 483.452 57.27 482.042 57.9C480.622 58.54 479.962 58.19 480.622 57.08C481.262 55.94 479.812 55.19 480.532 54.03C481.192 52.84 480.982 52.08 480.402 52.87C479.802 53.67 478.512 54.55 478.512 54.55C478.512 54.55 479.042 52.8 479.452 51.98C479.872 51.14 478.412 48.26 480.652 47.41C482.942 46.6 483.002 43.94 482.732 42.69C482.442 41.47 484.112 40.55 484.362 39.78C484.632 39.05 480.222 40.14 479.292 39.66C478.402 39.16 480.822 37.18 482.442 36.19C484.112 35.22 485.932 33 485.932 33C485.932 33 482.062 34.78 480.242 35.8C478.402 36.84 476.492 36.19 475.552 35.55C474.942 35.14 476.322 34.16 477.072 33.71C475.872 34.23 474.122 33.1 473.732 32.52C473.322 31.87 472.242 31.38 473.612 31.38C474.982 31.38 477.142 29.16 477.142 29.16C477.142 29.16 475.042 29.77 472.772 29.62C470.512 29.4 467.592 30.33 466.542 30.27C465.412 30.24 464.302 30.27 463.542 29.62C462.822 29 460.372 30.21 460.372 30.21C460.372 30.21 461.812 30.49 461.622 31.05C461.402 31.68 457.722 33.63 457.672 33.19C457.612 32.72 459.232 30.55 459.232 30.55C459.232 30.55 458.132 30.72 456.342 31.75C454.582 32.77 454.792 32.99 452.222 32.77C449.662 32.57 447.082 34.62 447.082 34.62C449.092 32.57 451.722 31.89 454.502 30.25C457.282 28.64 458.042 29.49 458.422 28.56C458.792 27.6 458.942 26.68 459.942 25.09C460.882 23.55 462.282 23.27 462.282 23.27C459.112 20.62 462.912 19.77 462.912 19.77C462.912 19.77 462.662 19.63 461.042 19.77C459.382 19.92 458.952 19.09 458.792 18.51C458.542 17.89 461.062 16 461.062 16C457.222 17.5 455.692 15.6 452.082 16.1C448.442 16.59 441.212 21.7 438.952 21.56C436.712 21.51 432.962 24.66 429.832 27.3C426.742 29.99 421.672 31.2 420.252 32.54C418.842 33.85 417.482 33.12 416.572 34.05C415.682 34.98 415.192 33.99 413.872 35.99C412.552 37.96 411.562 37.23 411.222 37.07C410.922 36.93 413.572 32.68 413.572 32.68C413.572 32.68 412.542 32.84 412.072 32.41C411.602 32.03 413.302 29.85 413.302 29.85L411.162 30.46C411.162 30.46 414.502 25.94 413.982 25.77C413.442 25.63 410.232 26.95 409.452 27.29C408.682 27.65 408.552 26.87 410.092 25.37C411.602 23.91 415.182 20.7 414.752 21.09C414.362 21.5 411.982 20.8 410.202 19.98C408.382 19.1 405.452 20.52 404.182 21.2C402.922 21.89 399.592 21.3 395.082 23.77C390.552 26.24 381.672 30.8 379.662 32.38C377.592 33.96 375.432 34.47 373.222 36.03C370.992 37.58 368.942 37.76 368.942 37.76V41.44C368.942 41.44 371.382 40.36 372.522 39.81C373.702 39.25 375.322 38.82 375.012 39.33C374.702 39.81 368.852 42.72 368.852 42.72C406.312 43.44 423.362 70.86 423.362 70.86L423.372 70.89ZM476.972 52.47C477.072 51.67 477.732 50.47 477.732 50.47C477.732 50.47 478.892 52.87 477.862 53.58C476.782 54.28 476.872 53.28 476.972 52.47ZM452.642 73.81C454.362 73.32 455.302 71.97 457.032 71.15C458.762 70.33 460.992 68.96 460.992 68.96C460.992 68.96 459.792 70.03 458.602 70.83C457.472 71.63 456.932 72.13 454.882 73.31C452.872 74.53 449.152 75.94 449.152 75.94C449.152 75.94 450.952 74.35 452.652 73.81H452.642Z" fill="white"/>
<path fill-rule="evenodd" clip-rule="evenodd" d="M546.579 77.3296C546.129 77.4296 546.129 78.9196 546.129 78.9196C547.109 78.8396 546.989 77.2196 546.579 77.3296Z" fill="white"/>
<path fill-rule="evenodd" clip-rule="evenodd" d="M588.931 158.461C589.161 157.751 586.391 159.961 586.391 159.961C586.391 159.961 588.731 159.151 588.931 158.461Z" fill="white"/>
<path fill-rule="evenodd" clip-rule="evenodd" d="M609.368 149.279C609.748 149.769 610.408 149.769 610.408 149.769C610.408 149.769 611.898 149.479 612.328 148.699C612.778 147.889 611.578 148.069 610.848 148.489C610.058 148.879 608.928 148.759 609.368 149.279Z" fill="white"/>
<path fill-rule="evenodd" clip-rule="evenodd" d="M618.191 172.84C617.931 173.24 617.451 173.99 617.051 174.68C617.341 174.29 617.721 173.99 618.091 173.93C619.051 173.84 619.791 174.24 619.901 173.03C619.991 171.85 618.721 172.03 618.181 172.83L618.191 172.84Z" fill="white"/>
<path fill-rule="evenodd" clip-rule="evenodd" d="M617.049 174.68C616.619 175.29 616.289 176.02 616.289 176.02C616.289 176.02 616.639 175.39 617.049 174.68Z" fill="white"/>
<path fill-rule="evenodd" clip-rule="evenodd" d="M499.497 198.199C498.827 197.179 498.648 198.589 498.188 198.769C498.188 198.769 500.117 199.179 499.497 198.199Z" fill="white"/>
<path fill-rule="evenodd" clip-rule="evenodd" d="M19.4797 343.85L12.4297 342.69L24.9097 280.99L30.9597 275.51L43.6297 342.7L37.1297 343.86L28.1597 295.27L19.4897 343.86L19.4797 343.85ZM21.5797 332.78H34.6497L28.1497 340.99L21.5797 332.78Z" fill="white"/>
<path fill-rule="evenodd" clip-rule="evenodd" d="M50.1992 342.68V277.51H57.0692V336.08H68.7392L71.1692 342.68H50.1992Z" fill="white"/>
<path fill-rule="evenodd" clip-rule="evenodd" d="M80.0283 343.85L72.9883 342.69L85.4482 280.99L91.5082 275.51L104.158 342.7L97.6482 343.86L88.6982 295.27L80.0283 343.86V343.85ZM82.1083 332.78H95.2183L88.6982 340.99L82.1083 332.78Z" fill="white"/>
<path fill-rule="evenodd" clip-rule="evenodd" d="M120.778 296.6L112.838 344.03L106.328 342.83L117.618 281.23L123.418 275.82L127.848 311.49L132.638 281.07L138.588 275.66L148.178 342.68L141.928 343.85L135.798 296.44L127.298 340.56L120.778 296.6Z" fill="white"/>
<path fill-rule="evenodd" clip-rule="evenodd" d="M167.881 283.09C170.491 283.09 172.411 284.45 173.671 287.23C174.931 290.01 175.751 293.21 176.111 296.94C176.371 300.75 176.551 305.06 176.551 310.14C176.551 315.22 176.371 319.33 176.011 323.24C175.741 327.04 174.921 330.34 173.661 333.12C172.401 335.92 170.391 337.26 167.871 337.26C165.351 337.26 163.261 335.91 161.901 333.12C160.631 330.35 159.831 327.04 159.481 323.33C159.191 319.62 159.021 315.22 159.021 310.15C159.021 305.08 159.191 300.51 159.481 296.88C159.731 293.14 160.561 290.02 161.821 287.24C163.081 284.45 165.071 283.1 167.691 283.1H167.871L167.881 283.09ZM183.401 310.14C183.401 303.7 183.141 298.22 182.591 293.57C181.981 289 180.621 285.03 178.281 281.68C176.021 278.36 172.601 276.68 167.881 276.68C164.271 276.68 161.471 277.69 159.281 279.72C157.121 281.68 155.491 284.27 154.491 287.58C153.501 290.77 152.781 294.26 152.491 297.89C152.241 301.44 152.141 305.59 152.141 310.15C152.141 314.71 152.241 318.85 152.491 322.4C152.781 326.03 153.501 329.5 154.491 332.79C155.481 336.09 157.121 338.8 159.281 340.81C161.461 342.83 164.271 343.85 167.881 343.85C172.601 343.85 176.021 342.17 178.281 338.79C180.621 335.41 181.981 331.42 182.591 326.79C183.141 322.13 183.401 316.56 183.401 310.15V310.14Z" fill="white"/>
<path fill-rule="evenodd" clip-rule="evenodd" d="M223.987 342.68H217.227V284.1H210.527L213.067 277.51H231.587L228.887 284.1H223.987V342.68Z" fill="white"/>
<path fill-rule="evenodd" clip-rule="evenodd" d="M260.518 277.51L262.948 284.1H247.768V309.97H262.138V316.56H247.968V336.08H262.138V342.68H240.908V316.56H235.488L237.918 310.14H240.908V277.51H260.518Z" fill="white"/>
<path fill-rule="evenodd" clip-rule="evenodd" d="M292.162 277.51L294.602 284.1H279.422V309.97H293.782V316.56H279.582V336.08H293.782V342.68H272.522V316.56H267.102L269.552 310.14H272.522V277.51H292.162Z" fill="white"/>
<path fill-rule="evenodd" clip-rule="evenodd" d="M320.6 281.4L314.28 283.77C309.87 285.47 307.5 288.51 307.14 292.81C307.34 294.25 307.59 295.61 308.23 296.94L319.34 321.02C320.24 323.07 320.8 325.17 320.8 327.62C320.8 331.01 319.71 333.95 317.46 336.67C315.19 339.3 312.39 341.14 309.14 342.32L303.16 344.44L300.45 338.36L306.49 336.41C308.76 335.73 310.47 334.64 311.74 333.03C313.09 331.41 313.72 329.64 313.72 327.62C313.72 326.1 313.47 324.57 312.82 323.23L301.7 299.4C300.71 297.28 300.27 295.09 300.09 292.8C300.17 289.5 301.27 286.46 303.35 283.76C305.33 281.06 308.13 279.03 311.74 277.76L317.97 275.49L320.58 281.39L320.6 281.4Z" fill="white"/>
<path fill-rule="evenodd" clip-rule="evenodd" d="M361.74 311.49L374.75 334.56C371.85 337.01 368.52 338.19 364.72 338.19C361.56 338.19 359.03 337.1 357.13 334.9C355.32 332.62 354.32 329.92 354.32 326.7C354.67 324.42 355.14 322.47 355.69 320.79C356.24 319.09 356.96 317.41 357.96 315.88C358.95 314.28 360.2 312.86 361.75 311.49H361.74ZM366.43 307.69C368.17 306.26 369.7 304.83 371.13 303.54C372.6 302.28 373.93 301.03 375.11 299.68C376.38 298.23 377.38 296.7 378.09 295C378.89 293.33 379.35 291.54 379.35 289.52C379.35 285.64 378.2 282.43 375.82 280.08C373.46 277.7 370.13 276.43 365.7 276.34C363.25 276.34 361.01 277.02 359.02 278.38C357.04 279.63 355.5 281.42 354.41 283.62C353.24 285.73 352.59 288.02 352.7 290.36C352.79 292.39 353.14 294.27 353.69 295.94C354.23 297.54 354.86 298.99 355.42 300.09C356.02 301.27 357.21 303.29 358.83 306.18C357.04 307.78 355.5 309.39 354.14 311C352.8 312.59 351.63 314.45 350.51 316.75C349.45 318.93 348.82 321.46 348.45 324.32C348.36 325.44 348.27 326.27 348.27 326.87C348.27 331.6 349.71 335.65 352.5 338.8C355.31 342.01 359.2 343.62 364.34 343.7C369.41 343.7 373.85 342.19 377.54 339.22L380.88 345.65L385.85 342.71L381.6 335.26L388.84 327.82L384.49 323.85L378.82 330.01L366.41 307.7L366.43 307.69ZM358.83 289.51C358.83 287.33 359.49 285.47 360.82 284.04C362.1 282.58 363.81 281.91 365.89 281.91C367.25 281.91 368.42 282.17 369.5 282.74C370.49 283.34 371.39 284.18 371.94 285.28C372.59 286.31 372.84 287.58 372.84 289C372.84 293.13 370.59 296.94 366.08 300.59L363.62 302.52C361.99 299.82 360.82 297.53 360.03 295.6C359.21 293.66 358.83 291.62 358.83 289.5V289.51Z" fill="white"/>
<path fill-rule="evenodd" clip-rule="evenodd" d="M428.988 340.99L435.488 332.78H422.388L428.988 340.99ZM428.988 295.26L437.918 343.85L444.428 342.69L431.778 275.5L425.708 280.98L413.238 342.68L420.298 343.84L428.978 295.25L428.988 295.26Z" fill="white"/>
<path fill-rule="evenodd" clip-rule="evenodd" d="M455.899 336.239V284.269H461.239C463.879 284.269 465.749 285.109 467.099 286.819C468.459 288.499 469.369 290.609 469.739 293.209C470.179 295.849 470.349 298.969 470.349 302.679V316.139C470.349 320.089 470.179 323.569 469.739 326.359C469.369 329.149 468.459 331.499 467.099 333.439C465.749 335.299 463.759 336.229 461.049 336.229H455.889L455.899 336.239ZM449.039 277.609V342.689H461.599C465.129 342.689 467.929 341.659 470.099 339.619C472.279 337.689 473.869 335.159 474.899 332.029C475.889 328.809 476.579 325.509 476.869 322.049C477.139 318.609 477.319 314.619 477.319 310.149C477.319 305.679 477.139 301.679 476.869 298.229C476.579 294.759 475.989 291.469 474.899 288.329C473.869 285.119 472.359 282.579 470.189 280.559C468.009 278.619 465.219 277.609 461.779 277.609H449.039Z" fill="white"/>
<path fill-rule="evenodd" clip-rule="evenodd" d="M497.48 327.98L506.23 276.51L512.75 277.61L499.93 344.97L494.03 339.56L481.59 277.61L488.26 276.33L497.48 327.98Z" fill="white"/>
<path fill-rule="evenodd" clip-rule="evenodd" d="M520.159 277.51V310.14H517.19L514.75 316.56H520.159V342.68H541.409V336.08H527.229V316.56H541.409V309.97H527.039V284.1H542.219L539.799 277.51H520.159Z" fill="white"/>
<path fill-rule="evenodd" clip-rule="evenodd" d="M564.898 315.97L574.218 342L568.438 344.02L556.788 309.97H558.308C560.118 309.97 561.568 309.63 562.658 309.03C563.728 308.44 564.628 307.19 565.268 305.33C565.898 303.46 566.258 300.66 566.258 296.94C566.178 293.57 565.898 290.96 565.268 289.18C564.718 287.32 563.818 285.96 562.568 285.2C561.368 284.44 559.638 284.09 557.498 284.09H555.668V342.68H548.988V277.5H558.048C561.578 277.5 564.478 278.01 566.648 279.11C568.798 280.21 570.508 282.16 571.618 285.03C572.778 287.83 573.438 291.79 573.438 296.94C573.438 300.83 573.138 303.96 572.518 306.41C571.878 308.86 571.148 310.7 570.228 311.92C569.438 313.17 568.558 314.03 567.638 314.43C566.728 314.94 566.098 315.28 565.818 315.45L564.918 315.96L564.898 315.97Z" fill="white"/>
<path fill-rule="evenodd" clip-rule="evenodd" d="M590.679 342.68H583.909V284.1H577.199L579.749 277.51H598.259L595.549 284.1H590.679V342.68Z" fill="white"/>
<path fill-rule="evenodd" clip-rule="evenodd" d="M614.27 277.51V342.68H607.57V277.51H614.27Z" fill="white"/>
<path fill-rule="evenodd" clip-rule="evenodd" d="M643.27 281.4L636.94 283.77C632.52 285.47 630.169 288.51 629.799 292.81C629.999 294.25 630.26 295.61 630.89 296.94L642.01 321.02C642.9 323.07 643.45 325.17 643.45 327.62C643.45 331.01 642.37 333.95 640.12 336.67C637.85 339.3 635.059 341.14 631.789 342.32L625.83 344.44L623.09 338.36L629.169 336.41C631.429 335.73 633.13 334.64 634.39 333.03C635.75 331.41 636.39 329.64 636.39 327.62C636.39 326.1 636.11 324.57 635.49 323.23L624.37 299.4C623.39 297.28 622.93 295.09 622.75 292.8C622.86 289.5 623.93 286.46 626.02 283.76C627.98 281.06 630.8 279.03 634.4 277.76L640.64 275.49L643.27 281.39V281.4Z" fill="white"/>
<path fill-rule="evenodd" clip-rule="evenodd" d="M659.63 277.51V342.68H652.93V277.51H659.63Z" fill="white"/>
<path fill-rule="evenodd" clip-rule="evenodd" d="M676.26 295.76V342.5H669.41V280.79L675.16 275.32L692.35 323.33V277.51L699.04 277.61V342.68L694.25 344.78L676.26 295.76Z" fill="white"/>
<path fill-rule="evenodd" clip-rule="evenodd" d="M730.68 340.38L729.95 341.14C728.24 342.99 725.62 344.02 721.8 344.02C718.38 344.02 715.49 343 713.31 340.99C711.15 338.95 709.61 336.33 708.51 333.04C707.52 329.74 706.8 326.26 706.52 322.56C706.26 318.92 706.09 314.85 706.09 310.47C706.09 305.65 706.18 301.52 706.45 297.97C706.72 294.32 707.25 290.96 708.24 287.66C709.24 284.36 710.88 281.68 713.02 279.62C715.22 277.61 718.11 276.51 721.79 276.51C724.68 276.51 727.58 277.44 730.11 279.45L731.21 280.32L728.49 287.4L727.76 286.39C726.24 284.27 724.34 283.09 721.8 283.09C719.26 283.09 717.48 283.93 716.1 285.71C714.84 287.4 713.94 289.69 713.5 292.38C713.13 295.18 712.68 298.38 712.77 302.2C712.77 304.12 712.96 306.85 712.96 310.47C712.96 314.54 712.77 317.64 712.77 319.84C712.68 323.4 713.12 326.43 713.57 328.89C714.02 331.35 714.93 333.37 716.2 334.98C717.55 336.57 719.36 337.33 721.79 337.33C722.07 337.33 722.68 337.25 723.6 337.09V316.73H718.1L720.69 310.13H730.67V340.37L730.68 340.38Z" fill="white"/>
<path d="M731.218 253.279H12.418V258.969H731.218V253.279Z" fill="white"/>
<path d="M731.218 360.381H12.418V366.071H731.218V360.381Z" fill="white"/>
</svg>
