<svg width="683" height="116" viewBox="0 0 683 116" fill="none" xmlns="http://www.w3.org/2000/svg">
<path fill-rule="evenodd" clip-rule="evenodd" d="M73.478 30.9125H66.3706L65.8919 32.0558C61.0824 43.6629 50.4214 44.4232 49.954 44.4682L36.6855 44.4401V51.2772H0V97.5085H3.84088V54.8646H40.532V48.0333H50.1004C50.7255 48.022 62.8958 47.1152 68.8655 34.4944H75.7025L76.2432 33.5707C76.5811 32.9907 84.8542 19.3448 104.205 18.6521L104.087 15.0703C85.2484 15.7518 75.8489 27.4659 73.478 30.9182V30.9125Z" fill="#003C64"/>
<path fill-rule="evenodd" clip-rule="evenodd" d="M209.237 62.0733C209.029 61.6847 208.111 61.3299 207.469 60.9639V64.3711C207.638 64.2528 207.773 64.1515 207.863 64.1064C208.854 63.6277 209.513 62.5802 209.237 62.0733Z" fill="#003C64"/>
<path fill-rule="evenodd" clip-rule="evenodd" d="M198.858 49.948C197.912 50.0663 196.809 50.804 196.009 51.187H206.377C206.09 50.8209 205.848 50.4999 205.69 50.314C205.206 49.6889 204.884 48.5626 203.42 48.754C201.967 48.9512 200.266 49.7847 198.858 49.9536V49.948Z" fill="#003C64"/>
<path fill-rule="evenodd" clip-rule="evenodd" d="M237.796 84.984C238.314 84.1786 240.088 83.0804 240.978 82.5961C241.867 82.0949 242.256 81.3458 242.25 80.6531C242.228 79.9604 242.464 80.0618 243.343 79.5437C244.233 79.003 243.619 78.8397 242.909 78.9354C242.194 79.003 242.65 78.1245 242.34 77.657C242.031 77.184 242.431 76.8967 242.69 76.1759C242.954 75.4775 243.377 74.4075 243.377 74.4075C243.377 74.4075 242.341 74.7679 241.457 75.4437C240.567 76.1083 240.352 75.7535 239.192 76.1364C238.032 76.525 235.982 77.8823 235.982 77.8823C235.982 77.8823 237.384 76.7447 237.767 76.4406C238.156 76.1364 239.006 75.0664 239.789 74.3624C240.6 73.6641 242.233 72.7292 242.504 72.4758C242.752 72.228 242.605 71.8056 241.704 71.8675C240.786 71.9295 240.06 72.4927 238.787 73.4726C237.525 74.4413 232.559 77.7978 232.018 78.3047C231.494 78.8059 231.342 79.9041 231.111 79.6788C230.857 79.4705 230.362 79.5493 230.362 80.1744C230.362 80.7996 229.624 80.8502 229.951 80.9122C230.283 80.9685 230.508 80.9291 231.111 80.3546C231.702 79.7689 233.004 79.5775 232.829 79.9661C232.649 80.3547 231.044 81.2783 230.368 81.9541C229.692 82.6524 225.586 85.3613 223.665 86.6679C221.739 87.9688 221.621 89.2754 220.602 89.8949C219.594 90.5088 218.067 90.6665 217.527 90.1934C217.003 89.7259 217.494 88.5883 219.031 87.4338C220.58 86.268 222.179 85.35 223.485 84.0097C224.781 82.6749 225.896 81.7232 226.493 80.6193C227.073 79.493 227.264 77.4318 226.695 77.0657C226.11 76.6771 226.6 76.1364 227.101 75.7985C227.602 75.4832 227.85 74.7172 227.495 74.4807C227.129 74.2273 227.292 74.0076 227.985 73.7486C228.7 73.5064 227.642 72.6898 226.775 72.4476C225.919 72.1998 223.981 72.1379 221.368 73.1403C218.771 74.1428 216.952 74.8411 215.888 75.1734C214.84 75.4944 213.36 75.5845 212.662 75.5845C211.963 75.5845 212.267 74.9087 211.974 74.7229C211.687 74.5257 210.425 75.4099 210.425 75.4099C210.425 75.4099 211.399 74.5933 211.512 73.7542C211.602 72.9263 213.123 72.7348 213.218 72.3744C213.32 72.0083 212.745 71.9351 212.047 72.2055C211.332 72.4814 211.332 71.4001 211.603 70.8989C211.851 70.3976 212.357 69.2994 212.166 69.5754C212.003 69.857 211.444 69.9584 211.298 69.4684C211.14 68.9615 210.425 69.2994 209.609 69.7613C208.752 70.24 208.286 69.1868 208.083 68.8489C208.038 68.7701 207.784 68.8095 207.474 68.8602V97.5147H203.651V70.0935C203.296 70.2231 202.991 70.3301 202.828 70.3976C202.068 70.7243 199.871 71.5916 199.094 72.6222C198.306 73.6472 195.045 75.6972 195.045 75.4888C195.045 75.2579 198.65 71.9351 199.145 71.4846C199.658 71.0566 201.076 69.5022 202.828 68.6574C203.104 68.5504 203.375 68.3533 203.651 68.1506V58.9201C203.47 58.8525 203.278 58.8187 203.126 58.8018C202.124 58.6497 202.186 58.3513 202.603 57.9908C202.805 57.8162 203.194 57.2981 203.651 56.8081V54.8764H167.826V50.7314C167.235 51.1989 166.779 51.5424 166.559 51.7395C165.422 52.6913 163.794 53.8346 162.347 54.5949C160.888 55.3664 156.084 58.6441 154.659 59.1172C153.24 59.6015 149.878 61.7866 148.453 62.1978C147.034 62.6202 140.929 66.1794 140.202 66.8046C139.51 67.4466 137.37 68.5617 136.204 68.7757C135.044 69.0066 134.711 69.3107 134.109 70.4089C133.501 71.524 131.676 72.5603 131.496 72.8249C131.315 73.1065 131.755 73.3205 132.447 73.6528C133.123 73.9907 133.827 76.052 134.221 76.3955C134.599 76.7334 136.39 76.3786 136.39 76.3786C136.39 76.3786 136.322 76.7616 136.429 77.3642C136.502 77.9893 138.079 77.443 138.321 77.7471C138.569 78.0625 137.758 79.0255 137.257 79.3916C136.739 79.7464 137.099 80.563 137.944 80.839C138.749 81.1149 138.817 81.6838 138.986 82.4722C139.172 83.2494 139.588 84.1111 140.422 83.7394C141.25 83.3789 141.881 82.3483 142.483 82.0498C143.075 81.7457 143.514 81.7344 143.17 82.9509C142.793 84.1674 143.008 85.3275 142.794 85.7386C142.585 86.1667 141.678 85.7386 141.289 85.9189C140.906 86.0878 140.163 87.7661 140.197 87.5859C140.214 87.3775 138.958 86.8819 138.958 86.8819C138.958 86.8819 139.695 87.3268 139.741 88.3743C139.797 89.4444 138.513 89.4444 137.792 89.5739C137.077 89.7091 136.812 90.5482 137.572 91.01C138.338 91.4718 138.665 92.7277 139.825 92.3447C140.98 91.9618 141.841 92.5982 142.269 93.0262C142.686 93.4767 141.622 93.6231 142.01 93.9329C142.444 94.2314 141.881 94.3947 141.346 94.5974C140.799 94.7946 142.393 95.3408 143.069 95.476C143.739 95.6281 144.195 95.0086 144.539 94.7044C144.916 94.4003 145.547 94.4904 146.978 94.0286C148.414 93.6006 151.866 90.8298 153.167 90.3117C154.485 89.7654 155.104 88.9938 156.647 87.9463C158.179 86.8875 160.741 85.7217 162.014 85.2487C163.298 84.7756 164.746 82.3877 165.675 81.4191C166.632 80.4448 168.536 80.0167 169.933 79.5662C171.307 79.11 171.538 78.3948 172.264 77.6232C173.013 76.846 172.247 78.2033 173.193 77.9273C174.151 77.657 174.258 77.2403 175.987 76.908C177.694 76.5814 177.355 75.9675 176.775 75.6183C176.223 75.286 175.266 75.9055 174.562 76.3786C173.847 76.846 171.295 76.6039 171.295 76.6039C171.295 76.6039 175.243 74.8524 176.173 74.323C177.062 73.8049 178.623 72.8644 180.493 72.4138C182.362 71.9858 184.097 70.713 184.097 70.713C184.097 70.713 182.148 73.146 181.264 73.9569C180.38 74.7567 179.039 74.3174 178.572 75.4156C178.082 76.5363 176.579 76.5757 175.599 77.7246C174.624 78.8848 171.712 80.4335 170.259 81.3233C168.812 82.2244 165.422 84.2124 164.205 85.5134C163.011 86.8199 157.385 89.9231 155.701 91.0044C154 92.0969 151.021 93.747 147.935 95.9716C144.837 98.1962 141.317 100.798 140.591 101.22C139.893 101.632 139.819 102.138 139.769 102.91C139.712 103.682 137.944 104.723 137.341 104.999C136.739 105.247 136.17 105.731 136.778 106.351C137.37 106.965 137.843 106.683 138.327 106.289C138.851 105.917 138.963 106.847 138.98 107.494C139.037 108.131 139.814 108.26 140.692 108.497C141.531 108.711 141.509 109.623 143.063 109.758C144.606 109.854 144.415 108.604 145.784 108.637C147.147 108.654 148.329 107.99 149.343 107.528C150.351 107.044 152.745 105.41 154.265 103.98C155.814 102.538 159.418 100.657 159.418 100.657C159.418 100.657 159.778 101.953 161.034 102.262C162.29 102.561 161.53 104.081 161.598 104.307C161.648 104.543 162.392 104.11 163.293 103.484C164.171 102.837 165.72 102.78 165.72 102.78C165.72 102.78 165.771 103 165.123 103.417C164.475 103.85 163.873 104.707 164.38 104.915C164.864 105.14 166.514 104.65 168.023 104.278C169.544 103.89 172.709 101.479 174.055 101.113C175.39 100.753 176.066 101.784 176.066 101.784C176.066 101.784 177.017 101.412 177.372 101.75C177.721 102.076 179.327 101.834 179.327 101.834C179.327 101.834 178.138 102.161 178.324 102.555C178.504 102.949 178.29 103.794 177.626 104.053C176.989 104.295 175.322 106.385 175.119 107.021C174.894 107.658 175.981 107.297 176.004 108.491C176.026 109.685 174.658 109.234 175.385 109.617C176.089 110.012 176.477 109.685 177.164 109.296C177.834 108.908 177.085 111.177 178.172 111.352C179.219 111.521 180.622 110.918 182.351 110.062C184.068 109.212 188.349 107.19 189.593 106.069C190.821 104.966 190.995 105.011 192.657 103.614C194.341 102.257 194.245 102.769 195.456 101.913C196.672 101.057 197.889 99.897 199.443 99.4126C200.981 98.9452 201.589 98.444 202.304 97.9258C203.008 97.4021 203.757 98.6749 204.607 98.444C205.469 98.2356 205.751 98.337 206.421 98.3651C207.108 98.3876 209.271 96.6193 209.271 96.6193C209.271 96.6193 208.054 97.7794 207.435 98.1511C206.815 98.5115 204.517 99.9983 202.828 101.553C201.138 103.118 199.989 103.49 198.891 104.892C197.799 106.272 195.794 107.353 194.127 108.26C192.471 109.189 194.144 111.459 193.232 112.135C192.314 112.788 193.181 113.278 194.42 113.306C195.659 113.346 195.095 114.455 195.619 114.816C196.12 115.187 198.508 115.069 199.77 114.314C201.02 113.56 203.611 111.358 204.36 110.524C205.092 109.691 206.641 110.13 207.379 109.33C208.122 108.519 209.434 108.412 210.273 108.243C210.701 108.153 211.242 107.9 211.619 107.669C211.946 107.483 212.177 107.331 212.177 107.331C212.177 107.331 211.946 107.489 211.619 107.669C210.893 108.131 209.727 108.942 209.35 109.708C208.776 110.823 206.348 112.101 205.785 112.467C205.233 112.828 205.081 113.903 206.725 113.284C208.403 112.67 210.853 111.994 211.737 111.915C212.638 111.831 213.382 111.482 214.052 110.755C214.733 110.045 214.503 110.637 215.392 110.473C216.277 110.299 219.003 106.695 220.371 106.233C221.723 105.743 221.677 106.081 223.547 105.349C225.417 104.588 228.666 102.482 230.204 101.885C231.736 101.26 234.259 99.6829 236.49 98.0159C238.703 96.3489 242.583 92.9924 243.061 92.7446C243.534 92.4968 243.107 91.4887 242.792 90.9537C242.499 90.3905 243.225 89.1515 242.977 88.8699C242.735 88.5883 240.933 89.388 240.155 89.6696C239.384 89.9512 239.001 89.1797 239.525 88.9319C240.026 88.6784 239.322 87.9012 238.602 87.6985C237.853 87.507 238.173 86.9889 237.959 86.5609C237.751 86.1498 239.806 85.8738 239.451 85.3951C239.102 84.9389 237.401 86.4201 236.872 86.2962C236.337 86.1498 237.272 85.8344 237.784 85.0178L237.796 84.984ZM165.219 72.2561C164.746 72.7517 164.261 73.8274 163.073 74.0639C161.857 74.2779 161.721 74.7341 161.429 75.1115C161.13 75.5 159.272 76.2434 159.272 76.2434C159.272 76.2434 160.702 74.8299 160.843 74.4356C160.95 74.0639 161.857 73.8218 163.163 73.1403C164.492 72.4701 165.681 71.7324 165.219 72.2505V72.2561ZM192.443 77.6458C191.204 78.0456 192.748 77.0375 193.057 76.8686C193.356 76.6996 194.499 76.2491 194.499 76.2491C194.02 76.6264 193.699 77.2572 192.443 77.6458ZM219.386 102.932C219.082 103.287 217.814 104.245 216.986 104.521C216.124 104.797 214.633 105.923 214.633 105.923C214.559 104.797 215.719 104.577 216.44 104.352C217.166 104.126 218 103.451 218.479 103.163C218.957 102.899 219.684 102.611 219.386 102.932Z" fill="#003C64"/>
<path fill-rule="evenodd" clip-rule="evenodd" d="M170.508 25.4398C170.508 25.4398 170.987 24.8203 170.695 24.8203C170.402 24.8203 170.508 25.4398 170.508 25.4398Z" fill="#003C64"/>
<path fill-rule="evenodd" clip-rule="evenodd" d="M169.844 24.3564C170.267 24.1311 170.638 23.292 170.638 23.292L169.495 24.1931L169.844 24.3564Z" fill="#003C64"/>
<path fill-rule="evenodd" clip-rule="evenodd" d="M176.354 20.308C176.354 20.0884 175.368 21.0401 175.368 21.3161C175.368 21.3161 176.354 20.5389 176.354 20.308Z" fill="#003C64"/>
<path fill-rule="evenodd" clip-rule="evenodd" d="M170.446 9.85533C170.401 9.64133 169.557 11.2689 169.557 11.2689C169.557 11.2689 170.514 10.0862 170.446 9.85533Z" fill="#003C64"/>
<path fill-rule="evenodd" clip-rule="evenodd" d="M158.85 2.68737C158.85 2.33257 158.079 2.72116 158.248 3.0647C158.248 3.0647 158.85 3.01401 158.85 2.68737Z" fill="#003C64"/>
<path fill-rule="evenodd" clip-rule="evenodd" d="M136.881 67.1766C137.793 66.8218 137.72 65.9545 137.754 65.2449C137.776 64.5297 138.249 64.3832 139.28 63.4765C140.328 62.5416 142.738 61.1675 143.983 60.7451C145.21 60.3227 146.297 59.247 147.063 58.3685C147.829 57.4787 148.606 57.1633 149.806 56.724C150.989 56.2735 152.667 54.5614 154.812 53.0971C156.733 51.7568 160.489 49.6448 162.584 48.0285H160.101C160.067 48.2594 159.915 48.5861 159.746 48.6536C159.431 48.755 159.166 48.8789 158.85 49.2112C158.541 49.5547 157.645 49.5547 157.645 49.5547C158.073 49.4477 159.07 48.4734 159.65 48.0342H158.073C157.91 48.0229 157.747 47.9778 157.6 47.9666C157.307 48.1749 157.11 48.327 157.048 48.3777C156.739 48.5917 156.327 48.0792 155.843 47.8596C155.353 47.6399 155.539 48.3214 155.663 48.5973C155.776 48.8846 154.711 49.0422 154.047 48.8846C153.382 48.71 152.948 48.8282 151.935 49.3914C150.898 49.9433 149.243 51.126 148.561 51.7455C147.897 52.3763 145.137 53.3224 145.137 53.3224C145.137 53.3224 146.1 52.7085 146.9 52.1454C147.66 51.5765 149.964 49.7856 149.643 49.8926C149.344 50.0165 147.288 50.4558 146.404 51.2499C145.498 52.0271 141.826 54.1728 141.826 54.1728C141.826 54.1728 142.31 52.8099 143.397 52.5396C144.456 52.2636 145.689 51.0753 145.689 50.3995C145.689 49.7237 146.573 49.3858 147.474 48.9916C148.387 48.5917 148.989 47.9722 149.519 47.4147C149.721 47.2064 150.358 46.7558 151.163 46.2377C146.551 44.2384 143.549 41.0453 141.719 38.5053C140.964 38.8432 140.198 39.2431 139.731 39.5528C138.948 40.0541 136.898 41.569 136.064 41.569C135.231 41.569 135 42.2448 134.149 42.87C133.299 43.4838 132.274 43.4838 131.756 44.0413C131.187 44.6045 129.447 45.1677 129.16 45.8942C128.85 46.6319 123.196 49.6674 121.883 50.0053C120.543 50.3263 120.138 50.4502 119.71 51.0077C119.293 51.5653 117.795 52.0721 117.795 52.0721C117.795 52.0721 120.138 49.3069 120.965 48.9183C121.833 48.541 123.68 47.0205 123.68 47.0205C123.68 47.0205 124.153 46.5644 124.823 46.5024C125.488 46.4517 127.47 45.5056 127.943 44.5482C128.422 43.5851 128.968 44.2046 129.796 43.6471C130.652 43.0896 131.852 41.9012 132.82 41.7492C133.767 41.5633 134.313 40.5496 135.456 40.3919C136.588 40.2117 137.388 39.8288 138.531 39.2487C139.314 38.877 140.468 38.4715 141.398 38.0322C140.012 36.016 139.415 34.4786 139.415 34.4786H132.567C122.221 18.3492 104.155 18.642 104.155 18.642V63.1499C104.019 64.4283 105.613 64.479 106.452 64.8112C107.291 65.1379 106.052 66.0502 105.912 66.0897C105.748 66.1572 106.914 66.7824 108.08 66.5402C109.24 66.2924 111.904 64.7662 113.667 63.9721C115.401 63.1611 117.215 62.0911 117.874 61.3477C118.51 60.6099 119.231 60.0468 120.301 59.5512C121.348 59.0443 121.686 58.0306 122.159 57.8053C122.638 57.5688 122.717 58.6332 123.652 58.5487C124.547 58.4642 124.649 57.1239 125.048 57.0112C125.431 56.893 125.099 57.3829 125.139 57.8841C125.172 58.391 125.843 59.0161 126.659 59.4667C127.448 59.9172 126.034 60.976 126.169 62.153C126.321 63.3526 126.963 62.1361 127.543 62.4853C128.095 62.857 126.761 64.265 126.761 64.265C126.761 64.265 126.518 63.6793 126.209 63.7581C125.882 63.8482 126.287 64.6198 125.707 64.8788C125.105 65.1266 124.035 66.4501 123.77 66.7824C123.511 67.1147 123.956 67.1146 124.457 67.2273C124.953 67.3456 125.381 66.3882 125.848 66.0784C126.327 65.7236 126.744 67.4244 127.386 67.8693C128.039 68.3142 129.193 67.8355 129.193 67.8355C129.193 67.8355 127.769 68.3931 127.831 69.3617C127.904 70.3304 128.005 70.5331 128.658 71.0513C129.317 71.5863 130.021 70.888 131.21 70.0319C132.398 69.1703 134.409 68.9225 135.129 68.8661C135.85 68.8211 135.952 67.5483 136.87 67.1766H136.881Z" fill="#003C64"/>
<path fill-rule="evenodd" clip-rule="evenodd" d="M134.786 30.9129H141.91C142.721 33.0023 143.65 34.7481 144.669 36.2518C145.075 36.0434 145.458 35.8745 145.661 35.7788H145.689C145.728 35.7506 145.751 35.7393 145.779 35.7393C145.751 35.7393 145.706 35.7675 145.655 35.7788C145.328 35.9252 145.041 36.1504 144.765 36.4039C148.043 41.1909 152.12 43.1564 155.725 43.9448C156.924 43.4605 157.741 42.734 158.726 42.2947C159.385 42.0244 159.672 41.7541 160.585 41.6189C161.475 41.5063 162.207 41.2866 162.933 40.7291C163.648 40.1715 164.741 39.4281 165.834 39.1522C166.898 38.8762 168.148 37.6147 168.452 37.7386C168.751 37.8625 167.737 38.6904 167.258 38.9213C166.768 39.1522 166.594 40.0476 165.332 40.5489C164.071 41.0501 163.53 42.1258 162.798 42.1877C162.094 42.2384 162.145 42.6326 161.249 43.2465C160.641 43.6633 160.348 43.9843 160.202 44.4348H171.589V44.722C172.986 43.8041 178.764 40.5151 182.391 38.8762C186.221 37.1585 188.834 35.7337 188.834 35.7337C188.834 35.7337 181.023 41.9962 179.66 42.4243C178.297 42.8635 178.19 43.7872 176.314 44.7051C175.447 45.1444 173.515 46.4848 171.589 47.8871V51.1817H195.018C195.006 50.6974 195.744 49.7681 195.243 49.5316C194.618 49.2613 195.53 48.0898 195.018 47.7914C194.533 47.4929 194.218 46.9241 193.722 46.3215C193.249 45.7076 191.678 45.3697 190.901 45.7076C190.129 46.0455 190 45.7076 190.388 44.9586C190.754 44.1983 197.642 40.2279 199.303 38.8143C200.965 37.412 203.488 35.6605 203.471 35.1367C203.426 34.6017 204.378 32.7488 203.51 32.1969C202.666 31.6338 202.778 29.978 201.286 29.9104C199.805 29.8597 195.761 31.3691 194.764 32.3039C193.762 33.2388 190.799 34.6468 190.799 34.6468C190.799 34.6468 192.799 32.8221 193.035 32.135C193.277 31.4366 194.663 30.254 194.314 29.5444C193.959 28.8235 193.108 29.015 192.889 28.5982C192.675 28.1758 193.835 27.5676 193.458 27.1959C193.114 26.8411 190.281 27.3649 189.662 26.8411C189.042 26.3117 188.428 26.3906 188.051 26.7228C187.702 26.9988 187.347 27.2579 186.739 27.1227C186.108 26.9819 182.481 29.9949 182.194 29.8203C181.895 29.6119 182.813 28.7559 182.791 28.3335C182.751 27.9168 184.041 26.9256 184.041 26.9256C184.041 26.9256 182.898 26.2779 182.143 25.8217C181.417 25.3374 182.098 23.845 180.555 23.6197C179.012 23.4057 177.728 23.7549 176.664 24.2167C175.594 24.6503 173.926 25.5965 171.848 26.5032C169.781 27.4268 169.241 26.9537 168.655 26.7228C168.058 26.4525 169.815 24.977 169.185 24.8193C168.576 24.656 166.954 26.2892 166.571 25.8274C166.228 25.343 169.185 23.7155 169.218 23.2424C169.241 22.7637 168.621 23.2424 167.827 23.5972C167.028 23.9576 166.656 23.7605 167.028 23.1354C167.388 22.4934 166.571 22.071 166.977 21.4177C167.349 20.7475 167.23 20.3195 166.904 20.7644C166.566 21.2149 165.839 21.7105 165.839 21.7105C165.839 21.7105 166.138 20.725 166.369 20.2632C166.605 19.7901 165.783 18.1681 167.044 17.6894C168.334 17.2333 168.368 15.7352 168.216 15.0312C168.053 14.3442 168.993 13.826 169.134 13.3924C169.286 12.9813 166.802 13.5951 166.279 13.3248C165.777 13.0432 167.14 11.9281 168.053 11.3706C168.993 10.8243 170.018 9.57404 170.018 9.57404C170.018 9.57404 167.839 10.5765 166.814 11.1509C165.777 11.7366 164.702 11.3706 164.172 11.0101C163.829 10.7792 164.606 10.2273 165.028 9.9739C164.352 10.2667 163.367 9.63036 163.147 9.30371C162.916 8.93765 162.308 8.66169 163.08 8.66169C163.851 8.66169 165.068 7.41143 165.068 7.41143C165.068 7.41143 163.885 7.75497 162.607 7.6705C161.334 7.5466 159.689 8.07035 159.098 8.03656C158.462 8.01967 157.836 8.03656 157.408 7.6705C157.003 7.32133 155.623 8.00277 155.623 8.00277C155.623 8.00277 156.434 8.16046 156.327 8.47584C156.203 8.83064 154.131 9.92884 154.103 9.68104C154.069 9.41635 154.981 8.19425 154.981 8.19425C154.981 8.19425 154.362 8.28999 153.354 8.87007C152.362 9.44451 152.481 9.56841 151.033 9.44451C149.592 9.33187 148.139 10.4864 148.139 10.4864C149.271 9.33187 150.752 8.94891 152.317 8.0253C153.883 7.11858 154.311 7.59728 154.525 7.07353C154.733 6.53287 154.818 6.01475 155.381 5.1193C155.91 4.252 156.699 4.09431 156.699 4.09431C154.914 2.60189 157.054 2.12318 157.054 2.12318C157.054 2.12318 156.913 2.04434 156.001 2.12318C155.066 2.20766 154.823 1.74022 154.733 1.41358C154.593 1.06441 156.012 0 156.012 0C153.849 0.844768 152.987 -0.225271 150.954 0.0563181C148.904 0.332276 144.833 3.21012 143.56 3.13127C142.298 3.10312 140.186 4.87713 138.424 6.36392C136.683 7.87887 133.828 8.56032 133.028 9.31498C132.234 10.0527 131.468 9.64162 130.956 10.1654C130.455 10.6891 130.179 10.1316 129.435 11.2579C128.692 12.3674 128.134 11.9563 127.943 11.8662C127.774 11.7873 129.266 9.39382 129.266 9.39382C129.266 9.39382 128.686 9.48393 128.422 9.24176C128.157 9.02776 129.114 7.80003 129.114 7.80003L127.909 8.14357C127.909 8.14357 129.79 5.598 129.497 5.50226C129.193 5.42341 127.385 6.16681 126.946 6.35829C126.512 6.56103 126.439 6.12175 127.307 5.27699C128.157 4.45475 130.173 2.64694 129.931 2.86658C129.711 3.09748 128.371 2.70326 127.369 2.24145C126.344 1.74585 124.693 2.54557 123.978 2.92853C123.269 3.31712 121.393 2.98485 118.853 4.3759C116.302 5.76695 111.301 8.33505 110.169 9.22487C109.003 10.1147 107.787 10.4019 106.542 11.2805C105.286 12.1534 104.132 12.2548 104.132 12.2548V14.3273C104.132 14.3273 105.506 13.719 106.148 13.4093C106.812 13.0939 107.725 12.8517 107.55 13.139C107.376 13.4093 104.081 15.0481 104.081 15.0481C125.178 15.4536 134.78 30.896 134.78 30.896L134.786 30.9129ZM164.972 20.5391C165.028 20.0886 165.4 19.4128 165.4 19.4128C165.4 19.4128 166.053 20.7644 165.473 21.1643C164.865 21.5585 164.916 20.9953 164.972 20.5391ZM151.27 32.5574C152.238 32.2814 152.768 31.5211 153.742 31.0593C154.716 30.5975 155.972 29.826 155.972 29.826C155.972 29.826 155.297 30.4286 154.626 30.8791C153.99 31.3296 153.686 31.6112 152.531 32.2758C151.399 32.9629 149.304 33.7569 149.304 33.7569C149.304 33.7569 150.318 32.8615 151.275 32.5574H151.27Z" fill="#003C64"/>
<path fill-rule="evenodd" clip-rule="evenodd" d="M204.174 34.5401C203.921 34.5964 203.921 35.4356 203.921 35.4356C204.473 35.3905 204.405 34.4782 204.174 34.5401Z" fill="#003C64"/>
<path fill-rule="evenodd" clip-rule="evenodd" d="M228.025 80.2315C228.155 79.8317 226.595 81.0763 226.595 81.0763C226.595 81.0763 227.913 80.6201 228.025 80.2315Z" fill="#003C64"/>
<path fill-rule="evenodd" clip-rule="evenodd" d="M239.537 75.0596C239.751 75.3356 240.123 75.3356 240.123 75.3356C240.123 75.3356 240.962 75.1723 241.204 74.733C241.457 74.2768 240.782 74.3782 240.37 74.6147C239.926 74.8344 239.289 74.7668 239.537 75.0596Z" fill="#003C64"/>
<path fill-rule="evenodd" clip-rule="evenodd" d="M244.504 88.3294C244.358 88.5547 244.088 88.9771 243.862 89.3656C244.026 89.146 244.24 88.9771 244.448 88.9433C244.989 88.8926 245.405 89.1178 245.467 88.4364C245.518 87.7719 244.803 87.8732 244.499 88.3238L244.504 88.3294Z" fill="#003C64"/>
<path fill-rule="evenodd" clip-rule="evenodd" d="M243.862 89.3652C243.619 89.7088 243.434 90.1199 243.434 90.1199C243.434 90.1199 243.631 89.7651 243.862 89.3652Z" fill="#003C64"/>
<path fill-rule="evenodd" clip-rule="evenodd" d="M177.661 102.611C177.283 102.037 177.182 102.831 176.923 102.932C176.923 102.932 178.01 103.163 177.661 102.611Z" fill="#003C64"/>
<path fill-rule="evenodd" clip-rule="evenodd" d="M279.465 81.784L275.476 81.1275L282.539 46.2088L285.963 43.1074L293.133 81.1332L289.454 81.7896L284.378 54.2904L279.471 81.7896L279.465 81.784ZM280.654 75.519H288.051L284.372 80.1654L280.654 75.519Z" fill="#003C64"/>
<path fill-rule="evenodd" clip-rule="evenodd" d="M296.851 81.1218V44.2393H300.739V77.3865H307.343L308.718 81.1218H296.851Z" fill="#003C64"/>
<path fill-rule="evenodd" clip-rule="evenodd" d="M313.733 81.784L309.749 81.1275L316.801 46.2088L320.23 43.1074L327.389 81.1332L323.705 81.7896L318.64 54.2904L313.733 81.7896V81.784ZM314.91 75.519H322.33L318.64 80.1654L314.91 75.519Z" fill="#003C64"/>
<path fill-rule="evenodd" clip-rule="evenodd" d="M336.795 55.0432L332.301 81.8859L328.617 81.2068L335.007 46.3447L338.289 43.2829L340.796 63.4701L343.507 46.2541L346.875 43.1924L352.302 81.1219L348.765 81.7841L345.296 54.9527L340.485 79.9221L336.795 55.0432Z" fill="#003C64"/>
<path fill-rule="evenodd" clip-rule="evenodd" d="M363.451 47.3972C364.928 47.3972 366.015 48.1669 366.728 49.7402C367.441 51.3136 367.905 53.1246 368.109 55.2355C368.256 57.3918 368.358 59.831 368.358 62.706C368.358 65.581 368.256 67.907 368.052 70.1198C367.899 72.2704 367.435 74.1381 366.722 75.7114C366.009 77.296 364.871 78.0544 363.445 78.0544C362.019 78.0544 360.836 77.2904 360.067 75.7114C359.348 74.1437 358.895 72.2704 358.697 70.1708C358.533 68.0711 358.437 65.581 358.437 62.7117C358.437 59.8423 358.533 57.256 358.697 55.2016C358.838 53.085 359.308 51.3192 360.021 49.7459C360.734 48.1669 361.861 47.4029 363.343 47.4029H363.445L363.451 47.3972ZM372.234 62.706C372.234 59.0613 372.087 55.96 371.776 53.3283C371.431 50.742 370.661 48.4952 369.337 46.5992C368.058 44.7203 366.122 43.7695 363.451 43.7695C361.408 43.7695 359.823 44.3411 358.584 45.49C357.361 46.5993 356.439 48.065 355.873 49.9383C355.313 51.7437 354.905 53.7188 354.741 55.7732C354.6 57.7823 354.543 60.131 354.543 62.7117C354.543 65.2924 354.6 67.6354 354.741 69.6445C354.905 71.6988 355.313 73.6627 355.873 75.5246C356.433 77.3922 357.361 78.9259 358.584 80.0635C359.818 81.2067 361.408 81.784 363.451 81.784C366.122 81.784 368.058 80.8332 369.337 78.9203C370.661 77.0074 371.431 74.7493 371.776 72.129C372.087 69.4917 372.234 66.3394 372.234 62.7117V62.706Z" fill="#003C64"/>
<path fill-rule="evenodd" clip-rule="evenodd" d="M395.205 81.1218H391.38V47.9688H387.588L389.025 44.2393H399.507L397.979 47.9688H395.205V81.1218Z" fill="#003C64"/>
<path fill-rule="evenodd" clip-rule="evenodd" d="M415.879 44.2393L417.255 47.9688H408.664V62.6098H416.796V66.3393H408.777V77.3865H416.796V81.1218H404.781V66.3393H401.714L403.089 62.706H404.781V44.2393H415.879Z" fill="#003C64"/>
<path fill-rule="evenodd" clip-rule="evenodd" d="M433.786 44.2393L435.167 47.9688H426.576V62.6098H434.703V66.3393H426.666V77.3865H434.703V81.1218H422.671V66.3393H419.604L420.99 62.706H422.671V44.2393H433.786Z" fill="#003C64"/>
<path fill-rule="evenodd" clip-rule="evenodd" d="M449.882 46.4414L446.305 47.7827C443.809 48.7448 442.468 50.4653 442.264 52.8988C442.378 53.7138 442.519 54.4835 442.881 55.2362L449.169 68.8641C449.678 70.0243 449.995 71.2127 449.995 72.5993C449.995 74.5179 449.378 76.1817 448.105 77.7211C446.82 79.2095 445.236 80.2509 443.396 80.9187L440.012 82.1185L438.478 78.6775L441.896 77.5739C443.181 77.1891 444.149 76.5722 444.868 75.6611C445.632 74.7442 445.988 73.7425 445.988 72.5993C445.988 71.7391 445.847 70.8732 445.479 70.1148L439.186 56.6284C438.625 55.4286 438.376 54.1892 438.274 52.8932C438.32 51.0255 438.942 49.3051 440.119 47.777C441.24 46.249 442.825 45.1001 444.868 44.3814L448.393 43.0967L449.871 46.4358L449.882 46.4414Z" fill="#003C64"/>
<path fill-rule="evenodd" clip-rule="evenodd" d="M473.164 63.4701L480.527 76.5264C478.886 77.9129 477.001 78.5807 474.851 78.5807C473.062 78.5807 471.631 77.9639 470.555 76.7188C469.531 75.4284 468.965 73.9004 468.965 72.0781C469.163 70.7877 469.429 69.6841 469.74 68.7333C470.052 67.7712 470.459 66.8204 471.025 65.9546C471.585 65.049 472.293 64.2454 473.17 63.4701H473.164ZM475.819 61.3195C476.803 60.5102 477.669 59.7009 478.478 58.9708C479.31 58.2577 480.063 57.5503 480.731 56.7863C481.45 55.9656 482.016 55.0998 482.417 54.1377C482.87 53.1925 483.131 52.1795 483.131 51.0363C483.131 48.8404 482.48 47.0237 481.133 45.6938C479.797 44.3468 477.913 43.6281 475.405 43.5771C474.019 43.5771 472.751 43.962 471.625 44.7317C470.504 45.4391 469.633 46.4521 469.016 47.6972C468.354 48.8914 467.986 50.1874 468.048 51.5117C468.099 52.6605 468.297 53.7245 468.608 54.6696C468.914 55.5751 469.271 56.3958 469.588 57.0183C469.927 57.6861 470.601 58.8293 471.517 60.4649C470.504 61.3704 469.633 62.2816 468.863 63.1927C468.105 64.0926 467.443 65.1452 466.809 66.4469C466.209 67.6807 465.852 69.1125 465.643 70.7311C465.592 71.365 465.541 71.8347 465.541 72.1743C465.541 74.8512 466.356 77.1432 467.935 78.926C469.525 80.7426 471.727 81.6538 474.636 81.6991C477.505 81.6991 480.018 80.8445 482.106 79.1637L483.996 82.8027L486.809 81.1388L484.404 76.9225L488.501 72.7119L486.039 70.4651L482.831 73.9513L475.807 61.3251L475.819 61.3195ZM471.517 51.0306C471.517 49.7969 471.891 48.7442 472.644 47.9349C473.368 47.1086 474.336 46.7295 475.513 46.7295C476.283 46.7295 476.945 46.8766 477.556 47.1992C478.116 47.5387 478.626 48.0141 478.937 48.6367C479.305 49.2196 479.446 49.9384 479.446 50.742C479.446 53.0793 478.173 55.2356 475.62 57.3013L474.228 58.3935C473.306 56.8655 472.644 55.5695 472.197 54.4772C471.732 53.3793 471.517 52.2248 471.517 51.025V51.0306Z" fill="#003C64"/>
<path fill-rule="evenodd" clip-rule="evenodd" d="M511.225 80.1652L514.904 75.5188H507.49L511.225 80.1652ZM511.225 54.2846L516.279 81.7838L519.963 81.1273L512.804 43.1016L509.369 46.2029L502.312 81.1216L506.307 81.7781L511.219 54.2789L511.225 54.2846Z" fill="#003C64"/>
<path fill-rule="evenodd" clip-rule="evenodd" d="M526.454 77.4762V48.0641H529.476C530.97 48.0641 532.028 48.5395 532.792 49.5073C533.562 50.458 534.077 51.6522 534.286 53.1236C534.535 54.6177 534.632 56.3835 534.632 58.4831V66.1007C534.632 68.3362 534.535 70.3057 534.286 71.8847C534.077 73.4636 533.562 74.7936 532.792 75.8915C532.028 76.9442 530.902 77.4705 529.368 77.4705H526.448L526.454 77.4762ZM522.571 44.2949V81.1265H529.68C531.677 81.1265 533.262 80.5436 534.49 79.3891C535.724 78.2968 536.624 76.8649 537.207 75.0935C537.767 73.2712 538.157 71.4036 538.321 69.4454C538.474 67.4986 538.576 65.2405 538.576 62.7107C538.576 60.1809 538.474 57.9172 538.321 55.9647C538.157 54.0008 537.823 52.1389 537.207 50.3618C536.624 48.5452 535.769 47.1076 534.541 45.9644C533.307 44.8665 531.728 44.2949 529.781 44.2949H522.571Z" fill="#003C64"/>
<path fill-rule="evenodd" clip-rule="evenodd" d="M549.986 72.8023L554.938 43.6732L558.628 44.2957L551.373 82.4176L548.033 79.3559L540.993 44.2957L544.768 43.5713L549.986 72.8023Z" fill="#003C64"/>
<path fill-rule="evenodd" clip-rule="evenodd" d="M562.821 44.2393V62.706H561.141L559.76 66.3393H562.821V81.1218H574.847V77.3865H566.822V66.3393H574.847V62.6098H566.715V47.9688H575.306L573.936 44.2393H562.821Z" fill="#003C64"/>
<path fill-rule="evenodd" clip-rule="evenodd" d="M588.142 66.0052L593.416 80.7367L590.145 81.8799L583.552 62.6096H584.412C585.437 62.6096 586.257 62.4172 586.874 62.0776C587.48 61.7437 587.989 61.0362 588.351 59.9836C588.708 58.9253 588.912 57.3406 588.912 55.2353C588.866 53.3281 588.708 51.851 588.351 50.8436C588.04 49.791 587.531 49.0213 586.823 48.5912C586.144 48.1611 585.165 47.963 583.954 47.963H582.918V81.1216H579.138V44.2334H584.265C586.263 44.2334 587.904 44.522 589.132 45.1446C590.349 45.7671 591.317 46.8707 591.945 48.495C592.601 50.0796 592.975 52.3207 592.975 55.2353C592.975 57.4369 592.805 59.2083 592.454 60.5948C592.092 61.9814 591.679 63.0227 591.158 63.7132C590.711 64.4206 590.213 64.9073 589.693 65.1337C589.178 65.4223 588.821 65.6147 588.663 65.711L588.153 65.9996L588.142 66.0052Z" fill="#003C64"/>
<path fill-rule="evenodd" clip-rule="evenodd" d="M602.731 81.1218H598.9V47.9688H595.103L596.546 44.2393H607.021L605.488 47.9688H602.731V81.1218Z" fill="#003C64"/>
<path fill-rule="evenodd" clip-rule="evenodd" d="M616.083 44.2393V81.1218H612.291V44.2393H616.083Z" fill="#003C64"/>
<path fill-rule="evenodd" clip-rule="evenodd" d="M632.495 46.4414L628.913 47.7827C626.411 48.7448 625.081 50.4653 624.871 52.8988C624.984 53.7138 625.132 54.4835 625.489 55.2362L631.782 68.8641C632.286 70.0243 632.597 71.2127 632.597 72.5993C632.597 74.5179 631.986 76.1817 630.712 77.7211C629.428 79.2095 627.848 80.2509 625.997 80.9187L622.625 82.1185L621.074 78.6775L624.515 77.5739C625.794 77.1891 626.756 76.5722 627.469 75.6611C628.239 74.7442 628.601 73.7425 628.601 72.5993C628.601 71.7391 628.443 70.8732 628.092 70.1148L621.799 56.6284C621.244 55.4286 620.984 54.1892 620.882 52.8932C620.944 51.0255 621.55 49.3051 622.732 47.777C623.842 46.249 625.438 45.1001 627.475 44.3814L631.007 43.0967L632.495 46.4358V46.4414Z" fill="#003C64"/>
<path fill-rule="evenodd" clip-rule="evenodd" d="M641.754 44.2393V81.1218H637.962V44.2393H641.754Z" fill="#003C64"/>
<path fill-rule="evenodd" clip-rule="evenodd" d="M651.166 54.5679V81.0201H647.289V46.0957L650.543 43L660.272 70.1709V44.2394L664.058 44.296V81.1219L661.347 82.3104L651.166 54.5679Z" fill="#003C64"/>
<path fill-rule="evenodd" clip-rule="evenodd" d="M681.964 79.8196L681.551 80.2498C680.583 81.2968 679.101 81.8797 676.939 81.8797C675.003 81.8797 673.368 81.3024 672.134 80.1649C670.912 79.0103 670.04 77.5276 669.417 75.6656C668.857 73.798 668.45 71.8285 668.291 69.7345C668.144 67.6745 668.048 65.3711 668.048 62.8923C668.048 60.1644 668.099 57.8271 668.252 55.818C668.404 53.7523 668.704 51.8507 669.265 49.9831C669.831 48.1155 670.759 46.5988 671.97 45.4329C673.215 44.2954 674.85 43.6729 676.933 43.6729C678.569 43.6729 680.21 44.1992 681.642 45.3367L682.264 45.8291L680.725 49.836L680.312 49.2644C679.452 48.0646 678.376 47.3968 676.939 47.3968C675.501 47.3968 674.494 47.8721 673.713 48.8795C673 49.836 672.49 51.132 672.241 52.6544C672.032 54.239 671.777 56.05 671.828 58.2119C671.828 59.2985 671.936 60.8436 671.936 62.8923C671.936 65.1957 671.828 66.9501 671.828 68.1952C671.777 70.2099 672.026 71.9247 672.281 73.317C672.536 74.7092 673.051 75.8524 673.77 76.7636C674.534 77.6634 675.558 78.0935 676.933 78.0935C677.092 78.0935 677.437 78.0482 677.957 77.9577V66.4351H674.845L676.311 62.6999H681.959V79.814L681.964 79.8196Z" fill="#003C64"/>
<path d="M682.27 94.1396H275.47V97.3599H682.27V94.1396Z" fill="#003C64"/>
</svg>
