<svg width="285" height="220" viewBox="0 0 285 220" fill="none" xmlns="http://www.w3.org/2000/svg">
<path d="M0 20C0 8.9543 8.95431 0 20 0H265C276.046 0 285 8.95431 285 20V220H0V20Z" fill="#F1F1F1"/>
<path d="M112 92C112 88.8174 113.264 85.7652 115.515 83.5147C117.765 81.2643 120.817 80 124 80H160C163.183 80 166.235 81.2643 168.485 83.5147C170.736 85.7652 172 88.8174 172 92V128C172 131.183 170.736 134.235 168.485 136.485C166.235 138.736 163.183 140 160 140H124C120.817 140 117.765 138.736 115.515 136.485C113.264 134.235 112 131.183 112 128V92Z" stroke="white" stroke-width="6" stroke-linecap="round" stroke-linejoin="round"/>
<path d="M131.5 107C135.642 107 139 103.642 139 99.5C139 95.3579 135.642 92 131.5 92C127.358 92 124 95.3579 124 99.5C124 103.642 127.358 107 131.5 107Z" stroke="white" stroke-width="6" stroke-linecap="round" stroke-linejoin="round"/>
<path d="M149.578 111.863L124 140H160.399C163.476 140 166.426 138.778 168.602 136.602C170.778 134.426 172 131.476 172 128.399V128C172 126.602 171.475 126.065 170.53 125.03L158.44 111.845C157.876 111.23 157.191 110.74 156.427 110.405C155.664 110.07 154.839 109.898 154.005 109.899C153.171 109.901 152.347 110.077 151.585 110.415C150.822 110.753 150.139 111.246 149.578 111.863Z" stroke="white" stroke-width="6" stroke-linecap="round" stroke-linejoin="round"/>
</svg>
